<svg width="70" height="88" viewBox="0 0 70 88" fill="none" xmlns="http://www.w3.org/2000/svg">
<path d="M59.4453 21.9251L48.8906 0.00012207L39.1426 0.00012207C31.3359 0.00012207 29.3945 0.0625864 29.4492 0.270801C29.4766 0.416551 34.166 10.2234 39.8672 22.0708C45.5547 33.8974 50.2441 43.7043 50.2715 43.8292C50.3125 43.9542 45.623 53.8443 39.8672 65.7958C34.125 77.7682 29.4082 87.6167 29.4082 87.7208C29.4082 87.8041 33.7969 87.8665 39.1562 87.8665H48.9043L59.459 65.9208C65.2695 53.8443 70.0137 43.9333 70 43.8917C70 43.85 65.2422 33.9599 59.4453 21.9251Z" fill="#654C44"/>
<path d="M30.1191 21.821L19.6328 0.00012207L9.81641 0.00012207L0 0.00012207L0.259766 0.583122C0.410156 0.895443 5.1543 10.744 10.8008 22.4873C16.4473 34.2305 21.0684 43.8709 21.0684 43.9333C21.0684 43.9958 16.4473 53.6361 10.8008 65.3794C5.1543 77.1227 0.410156 86.9712 0.259766 87.3044L0 87.8665H9.81641H19.6328L30.0918 66.1082C35.8477 54.1358 40.5644 44.1832 40.5781 43.975C40.6055 43.7876 35.9844 34.0015 30.1191 21.821Z" fill="#654C44"/>
</svg>
