<?xml version="1.0" encoding="UTF-8"?>
<svg version="1.1" xmlns="http://www.w3.org/2000/svg" width="512" height="512">
<path d="M0 0 C1.02287109 0.61875 1.02287109 0.61875 2.06640625 1.25 C9.85710924 6.45365741 14.96272017 13.88028983 17 23 C17.30306882 25.79878947 17.36990284 28.56136854 17.375 31.375 C17.39949219 32.07882813 17.42398438 32.78265625 17.44921875 33.5078125 C17.50350582 43.42425033 12.18519257 50.63561456 6.375 58.25 C5.74964355 59.08354004 5.12428711 59.91708008 4.47998047 60.77587891 C2.66317896 63.19159521 0.834438 65.59766016 -1 68 C-1.67772461 68.88993652 -1.67772461 68.88993652 -2.36914062 69.79785156 C-4.31889087 72.35394578 -6.28144393 74.89976724 -8.25 77.44140625 C-16.66048429 88.30176267 -24.95823397 99.25184822 -33.1875 110.25 C-39.40512867 118.54017156 -45.70516799 126.76829661 -52 135 C-3.16 135 45.68 135 96 135 C91.38 129.06 86.76 123.12 82 117 C79.28431948 113.46341079 76.57251049 109.92527188 73.875 106.375 C73.20597656 105.49585938 72.53695313 104.61671875 71.84765625 103.7109375 C67.40072849 97.8610593 62.98040075 91.99185594 58.58422852 86.10375977 C55.06517336 81.39763928 51.49876991 76.72930206 47.92236328 72.06665039 C37.32219053 58.22951214 37.32219053 58.22951214 32.625 51.5625 C31.95726562 50.61503906 31.28953125 49.66757813 30.6015625 48.69140625 C25.02630447 39.32225313 25.41474483 29.27076918 28 19 C30.98429399 10.36046889 37.17466945 3.68508359 44.91015625 -0.9921875 C53.47058201 -5.12039282 63.81833439 -5.3930514 73.05078125 -3.3125 C81.82150015 -0.03882576 88.34124909 5.69199685 93.6875 13.25 C94.19095947 13.94109863 94.69441895 14.63219727 95.21313477 15.34423828 C96.81984222 17.55503999 98.40994217 19.77720348 100 22 C101.06654544 23.47219734 102.13425474 24.9435522 103.203125 26.4140625 C106.48272388 30.9326982 109.74198072 35.46579358 113 40 C119.61946309 49.20193522 126.26464843 58.38242958 133 67.5 C140.27942622 77.35407821 147.44830324 87.28574334 154.60449219 97.22949219 C161.51468334 106.82814677 168.47061036 116.38997545 175.50756836 125.89624023 C176.06581299 126.65106689 176.62405762 127.40589355 177.19921875 128.18359375 C177.69252686 128.84931396 178.18583496 129.51503418 178.6940918 130.20092773 C179.83518769 131.77294785 180.92248904 133.38373356 182 135 C184.77620245 135.44421826 184.77620245 135.44421826 188.0793457 135.35302734 C189.35860428 135.35668304 190.63786285 135.36033875 191.95588684 135.36410522 C192.64266825 135.35930523 193.32944965 135.35450523 194.03704262 135.34955978 C196.19599622 135.33580874 198.35403128 135.34226983 200.51298523 135.35440063 C206.65235257 135.3853168 212.79151176 135.38069848 218.9309082 135.36035156 C222.68768377 135.34931698 226.44377878 135.36288228 230.20046043 135.39024734 C231.62153907 135.39562868 233.04268831 135.3917781 234.46370888 135.37784958 C248.2699203 135.24430918 259.81629607 138.35011926 270 148 C278.21434325 156.60381642 278.21434325 156.60381642 278.33813477 162.42041016 C278.36057755 163.31208893 278.38302032 164.2037677 278.40614319 165.12246704 C278.41778 166.08494354 278.42941681 167.04742004 278.44140625 168.0390625 C278.45517807 169.03449066 278.46894989 170.02991882 278.48313904 171.05551147 C278.50642599 173.16536903 278.52368378 175.27530038 278.53540039 177.38525391 C278.56223121 180.59286587 278.63710308 183.79713047 278.71289062 187.00390625 C278.72955718 189.05726954 278.74332042 191.11065885 278.75390625 193.1640625 C278.78376114 194.11439362 278.81361603 195.06472473 278.84437561 196.04385376 C278.78529571 205.12107629 274.13441838 209.98348722 267.9375 216.125 C260.69730726 221.98922851 251.13349493 226.35597091 242 228 C239.38823473 237.69616479 237.53472584 247.48482757 235.76953125 257.35986328 C235.45905067 259.07944149 235.14819823 260.7989526 234.83700562 262.5184021 C234.17183219 266.19773002 233.50908815 269.87748398 232.84823608 273.55759048 C231.80173379 279.38420953 230.74867124 285.20963135 229.69458008 291.03488159 C227.07854984 305.49743598 224.47017611 319.96136978 221.8651123 334.42590332 C219.83752047 345.68384356 217.80742398 356.94131838 215.76930904 368.19735897 C214.72239374 373.98083413 213.68079034 379.7652323 212.64324951 385.5503962 C211.9955805 389.15485825 211.34308851 392.75843509 210.68928909 396.3617897 C210.38858022 398.02461775 210.0898306 399.68780158 209.79325485 401.35137177 C206.89378438 417.6035986 204.28024534 431.89680597 190 442 C182.42884348 446.13210299 175.35419837 446.57137337 166.86816406 446.50793457 C164.93032736 446.51729451 164.93032736 446.51729451 162.95334244 446.52684355 C159.39220107 446.54344717 155.83149184 446.53533192 152.2703495 446.52289867 C148.42023507 446.51381343 144.57019269 446.52783506 140.72009277 446.53881836 C133.18752796 446.55657125 125.6551229 446.55277805 118.12255192 446.5411678 C111.99872086 446.532121 105.87493446 446.53091486 99.75109863 446.53526306 C98.4419406 446.53618246 98.4419406 446.53618246 97.10633492 446.53712043 C95.33311556 446.53839938 93.55989622 446.53969623 91.78667688 446.5410108 C75.17325071 446.55240713 58.55991293 446.53931776 41.94650126 446.51780933 C27.70257117 446.49993921 13.45877149 446.50304358 -0.78515625 446.52148438 C-17.34059418 446.54290782 -33.89595471 446.55130858 -50.45140457 446.53903532 C-52.21796925 446.53776117 -53.98453393 446.53650369 -55.75109863 446.53526306 C-56.62020048 446.53464596 -57.48930233 446.53402886 -58.38474059 446.53339306 C-64.4986595 446.52994458 -70.61252915 446.53575766 -76.72644043 446.54518127 C-84.1809469 446.55641903 -91.63528496 446.55332395 -99.08977222 446.5320583 C-102.89057492 446.52157169 -106.69109719 446.51738493 -110.49189758 446.53065491 C-114.6175621 446.54484087 -118.74252334 446.52786183 -122.86816406 446.50793457 C-124.06175411 446.51685746 -125.25534416 446.52578034 -126.48510361 446.53497362 C-135.96203378 446.44627549 -144.04818917 444.46693217 -151.25 438 C-152.01828125 437.34 -152.7865625 436.68 -153.578125 436 C-160.12526772 427.88999095 -162.98306925 418.68383906 -164.7097168 408.56445312 C-164.92700943 407.38136063 -165.14430206 406.19826813 -165.36817932 404.97932434 C-165.95627473 401.75723128 -166.52798214 398.53276079 -167.09241462 395.30645561 C-167.70089269 391.85275905 -168.33107149 388.40301773 -168.95869446 384.95275879 C-170.15368492 378.36548863 -171.32999701 371.77502971 -172.49933606 365.18316317 C-173.78874954 357.91878667 -175.09702471 350.65786084 -176.40795302 343.39734077 C-178.46811512 331.9860281 -180.51856238 320.57300126 -182.56195092 309.15867424 C-185.50508117 292.7214071 -188.47340424 276.2888189 -191.4737339 259.8618927 C-191.96008526 257.19873246 -192.44494365 254.53530747 -192.928442 251.87162781 C-193.59227786 248.21789924 -194.26002521 244.56490825 -194.92895508 240.91210938 C-195.12528093 239.82766541 -195.32160679 238.74322144 -195.52388191 237.62591553 C-195.70479315 236.64314636 -195.88570438 235.6603772 -196.07209778 234.64782715 C-196.22815396 233.79298485 -196.38421015 232.93814255 -196.54499531 232.05739594 C-196.9234207 229.95022379 -196.9234207 229.95022379 -198 228 C-200.20775518 227.30258915 -200.20775518 227.30258915 -202.875 226.75 C-214.78788834 223.63692957 -224.21840677 216.89416292 -232.09716797 207.49926758 C-234.65631784 202.79304547 -234.62939415 198.94580572 -234.63671875 193.66796875 C-234.64766068 192.67678543 -234.6586026 191.68560211 -234.6698761 190.66438293 C-234.68570342 188.5724506 -234.69094855 186.48041474 -234.6862793 184.38842773 C-234.68749255 181.20704684 -234.74725353 178.03028447 -234.81054688 174.84960938 C-234.81869122 172.809907 -234.82336117 170.7701872 -234.82421875 168.73046875 C-234.84779953 167.7895488 -234.87138031 166.84862885 -234.89567566 165.87919617 C-234.78009195 157.46941181 -230.97456407 153.07616664 -225.28569031 147.24186707 C-219.1764871 141.31439536 -209.7414967 136.06027484 -201.10757446 135.96963501 C-199.98620087 136.01139862 -198.86482727 136.05316223 -197.70947266 136.09619141 C-196.43359283 136.13757233 -195.15771301 136.17895325 -193.84317017 136.22158813 C-193.16300465 136.24410267 -192.48283913 136.2666172 -191.78206253 136.289814 C-187.38274669 136.41807234 -182.98162345 136.45970244 -178.5808506 136.51114845 C-174.72884448 136.56091407 -170.88374741 136.6446014 -167.03466797 136.80566406 C-150.49273194 138.05726285 -150.49273194 138.05726285 -135.28140259 133.2015686 C-130.87749601 128.89552005 -127.98775775 123.9837883 -125.29963684 118.48542786 C-123.12222619 114.32134378 -120.26359439 110.67677859 -117.4375 106.9375 C-116.35978377 105.44914084 -115.28513926 103.95854813 -114.21484375 102.46484375 C-110.44026005 97.22128251 -106.65635286 91.98447517 -102.87255859 86.74755859 C-100.17401978 83.012055 -97.47742047 79.2751852 -94.78515625 75.53515625 C-88.65243321 67.02079319 -82.46767211 58.54783798 -76.23291016 50.10791016 C-72.27098147 44.73924951 -68.34163965 39.34831428 -64.4375 33.9375 C-63.90946777 33.20756836 -63.38143555 32.47763672 -62.83740234 31.72558594 C-60.04672127 27.86209037 -57.28077744 23.98319733 -54.54296875 20.08203125 C-53.68457397 18.86882202 -53.68457397 18.86882202 -52.80883789 17.63110352 C-51.72364648 16.09654184 -50.64544227 14.55700318 -49.57592773 13.01147461 C-45.35084665 7.05991318 -40.5253124 1.82937302 -33.8125 -1.3125 C-33.17957031 -1.61800781 -32.54664063 -1.92351563 -31.89453125 -2.23828125 C-22.31741328 -6.08887507 -8.68713546 -5.68483302 0 0 Z M-23.31640625 29.4296875 C-24.08491957 30.56496039 -24.83221855 31.71476456 -25.5625 32.875 C-26.43226842 34.17146303 -27.30343062 35.4669918 -28.17578125 36.76171875 C-28.63291504 37.45313965 -29.09004883 38.14456055 -29.56103516 38.85693359 C-32.03029262 42.5344263 -34.64544474 46.10520701 -37.25 49.6875 C-38.06706421 50.81841064 -38.06706421 50.81841064 -38.90063477 51.97216797 C-43.48109171 58.30921116 -48.12046328 64.6019789 -52.76635742 70.89111328 C-58.90873208 79.2143588 -64.95766919 87.60399195 -71 96 C-73.14463237 98.98003391 -75.29042485 101.95922558 -77.4375 104.9375 C-77.96255127 105.66662598 -78.48760254 106.39575195 -79.02856445 107.14697266 C-81.95584483 111.20259141 -84.91002227 115.23627378 -87.89453125 119.25 C-88.537854 120.11633057 -89.18117676 120.98266113 -89.84399414 121.87524414 C-91.09095388 123.55154009 -92.34131126 125.22531528 -93.59545898 126.89624023 C-94.15692627 127.65106689 -94.71839355 128.40589355 -95.296875 129.18359375 C-95.79541992 129.84931396 -96.29396484 130.51503418 -96.80761719 131.20092773 C-98.17741386 133.09805244 -98.17741386 133.09805244 -99 136 C-95.77605761 136.65007475 -95.77605761 136.65007475 -92 136 C-89.33774698 133.79512457 -87.48378696 131.06215284 -85.5 128.25 C-84.90106934 127.44087158 -84.30213867 126.63174316 -83.68505859 125.7980957 C-82.41471523 124.07928914 -81.15368842 122.3535635 -79.90136719 120.62158203 C-77.46762794 117.26597186 -74.97446651 113.95733713 -72.47875977 110.64770508 C-70.59501291 108.14770283 -68.72067919 105.64085647 -66.84765625 103.1328125 C-60.29464378 94.37428243 -53.63886918 85.6934916 -47 77 C-35.61683731 62.09238924 -35.61683731 62.09238924 -24.3125 47.125 C-23.84360352 46.50133545 -23.37470703 45.8776709 -22.89160156 45.23510742 C-21.5878695 43.49481978 -20.29319079 41.74812918 -19 40 C-18.52916992 39.37432129 -18.05833984 38.74864258 -17.57324219 38.10400391 C-14.81292601 34.46118324 -14.81292601 34.46118324 -13.625 30.125 C-13.78665835 28.02218753 -13.78665835 28.02218753 -15 27 C-19.06428116 26.37120826 -20.4192522 26.39085138 -23.31640625 29.4296875 Z M58 28 C58.21744325 34.02842661 60.34592553 37.35434062 64.1875 41.75 C65.29123633 43.06871308 66.3913403 44.39047271 67.48828125 45.71484375 C68.06529785 46.4094873 68.64231445 47.10413086 69.23681641 47.81982422 C72.25326903 51.54966664 75.05662204 55.43213029 77.875 59.3125 C82.4807501 65.62627134 87.1745779 71.85247973 92 78 C96.77768369 84.08911319 101.43313074 90.25123752 106 96.5 C111.23562836 103.66288058 116.58671646 110.72039649 122.08618164 117.68310547 C124.69718901 120.99554982 127.25369869 124.30906894 129.6328125 127.79296875 C130.22582153 128.64580444 130.22582153 128.64580444 130.83081055 129.51586914 C131.85207589 131.000793 132.84722081 132.50359128 133.83984375 134.0078125 C135.97328095 136.38593302 135.97328095 136.38593302 139.75390625 136.3046875 C140.82511719 136.20414062 141.89632812 136.10359375 143 136 C139.94699578 130.36425871 136.406792 125.30915576 132.5625 120.1875 C131.3039598 118.49533265 130.04616446 116.80261109 128.7890625 115.109375 C128.15516602 114.25666016 127.52126953 113.40394531 126.86816406 112.52539062 C124.02714376 108.68488959 121.22934485 104.81382981 118.4375 100.9375 C117.90511719 100.19902832 117.37273437 99.46055664 116.82421875 98.69970703 C114.68004942 95.72421781 112.53782784 92.74732864 110.39550781 89.77050781 C104.30761194 81.31406887 98.19126294 72.88114826 92 64.5 C87.32300889 58.1680936 82.67486139 51.81665297 78.0625 45.4375 C77.51972412 44.69129395 76.97694824 43.94508789 76.41772461 43.17626953 C72.97101588 38.41920202 69.70035751 33.58499264 66.66015625 28.5546875 C64.99485403 26.67859798 64.99485403 26.67859798 61.87109375 26.6953125 C59.10587549 26.68461201 59.10587549 26.68461201 58 28 Z M-205.5 171.5625 C-208.46902285 176.38716213 -208.62066298 180.38817224 -208 186 C-205.8065619 190.46811466 -203.51294863 192.90863356 -199 195 C-194.84587087 196.07146021 -190.78570303 196.14462887 -186.52294922 196.13803101 C-185.77899839 196.14085229 -185.03504757 196.14367357 -184.26855278 196.14658034 C-181.78058706 196.15490037 -179.29266598 196.15626234 -176.8046875 196.15771484 C-175.01898067 196.16238484 -173.23327502 196.16752871 -171.4475708 196.17311096 C-167.60455436 196.18437862 -163.76154562 196.19281909 -159.91851807 196.19923019 C-153.84262204 196.20991802 -147.76678153 196.23016361 -141.69091797 196.25234985 C-124.41441379 196.31425226 -107.1379134 196.3683242 -89.86132812 196.40136719 C-80.3178609 196.41969991 -70.77448716 196.44861521 -61.23108864 196.4893719 C-56.1811959 196.51045737 -51.13142102 196.52590143 -46.08148193 196.52817917 C-41.33392584 196.5303232 -36.5866155 196.54616745 -31.83913422 196.57256889 C-30.09645695 196.57977157 -28.35374994 196.58185818 -26.6110611 196.57846642 C-24.23276584 196.57457672 -21.85525742 196.58900913 -19.47705078 196.60800171 C-18.786873 196.60247201 -18.09669521 196.59694232 -17.38560295 196.59124506 C-13.09280863 196.6504596 -10.43033692 197.40860272 -7 200 C-4.16521573 203.6641753 -3.58987803 206.41072985 -3.625 211 C-3.61726562 212.010625 -3.60953125 213.02125 -3.6015625 214.0625 C-4.06574059 217.48467569 -4.8906745 219.27353559 -7 222 C-10.88095217 224.84262436 -13.63858759 225.37915746 -18.40974426 225.39872742 C-20.3511026 225.41753464 -20.3511026 225.41753464 -22.3316803 225.4367218 C-23.75863673 225.43554784 -25.18559295 225.43408873 -26.61254883 225.43237305 C-28.1206645 225.44139268 -29.62877282 225.45172039 -31.13687134 225.46325684 C-35.22530722 225.49082953 -39.31360401 225.5001117 -43.40212083 225.50611091 C-47.67696533 225.51549388 -51.95170591 225.54169721 -56.22648621 225.56611633 C-64.31884761 225.60978714 -72.41118885 225.63833053 -80.50363225 225.66143972 C-89.71765926 225.68848827 -98.93158176 225.7324 -108.14553416 225.77772844 C-127.0969676 225.87058303 -146.04842868 225.94226004 -165 226 C-164.40236743 235.37811309 -162.77006032 244.51865275 -161.07250977 253.74316406 C-160.76978599 255.40821065 -160.46748033 257.07333331 -160.16555786 258.73852539 C-159.34974495 263.23076237 -158.52787338 267.72187078 -157.70466733 272.21275806 C-156.84168188 276.92543446 -155.98369805 281.6390217 -155.12498474 286.35247803 C-153.68332019 294.26132515 -152.2377553 302.1694517 -150.78979492 310.07714844 C-149.11758137 319.20979404 -147.45132094 328.34351038 -145.78828388 337.47783113 C-144.18494957 346.28356706 -142.57764651 355.08857399 -140.96845818 363.89324188 C-140.28504113 367.63286733 -139.60296514 371.37273366 -138.92196846 375.1128006 C-138.11998761 379.5162032 -137.31451323 383.91895296 -136.50636673 388.32122803 C-136.21089467 389.93385765 -135.9166009 391.5467037 -135.62359047 393.15978241 C-135.22252291 395.36659066 -134.81712766 397.57256233 -134.41065979 399.77838135 C-134.18519753 401.01128025 -133.95973528 402.24417915 -133.72744083 403.51443863 C-132.87830536 410.14131576 -132.87830536 410.14131576 -129.24832255 415.18262291 C-126.6459355 416.12872006 -124.63358538 416.25068516 -121.86500549 416.25168228 C-120.29968157 416.25950552 -120.29968157 416.25950552 -118.70273495 416.26748681 C-117.5576122 416.26302537 -116.41248945 416.25856392 -115.23266602 416.25396729 C-114.01517198 416.25708727 -112.79767794 416.26020725 -111.54329014 416.26342177 C-108.16230268 416.27002746 -104.78153684 416.26763831 -101.40056276 416.26144934 C-97.75497957 416.2569315 -94.10941599 416.26390528 -90.46383667 416.26940918 C-83.32152668 416.27831197 -76.17925867 416.27637723 -69.03694701 416.2705839 C-63.23329686 416.2660709 -57.42965849 416.26545294 -51.62600708 416.26763153 C-50.80064628 416.267938 -49.97528548 416.26824446 -49.12491375 416.26856022 C-47.44831681 416.26919965 -45.77171987 416.26984808 -44.09512293 416.2705054 C-28.36608996 416.27621129 -12.63708028 416.26964674 3.09194887 416.25890467 C16.59418852 416.24996892 30.09639378 416.25152089 43.59863281 416.26074219 C59.27059654 416.27144025 74.94253985 416.27566194 90.61450672 416.26951766 C92.28500684 416.26888055 93.95550696 416.26825181 95.62600708 416.26763153 C96.44796914 416.26732298 97.2699312 416.26701443 98.1168012 416.26669653 C103.91485772 416.26496819 109.7129013 416.26788767 115.51095581 416.27259064 C122.57486875 416.27819432 129.63873723 416.27669385 136.70264506 416.26602915 C140.30816772 416.26076551 143.91361619 416.25872744 147.51913834 416.26532745 C151.42368971 416.27236686 155.32811904 416.26397318 159.23266602 416.25396729 C160.95035014 416.26065945 160.95035014 416.26065945 162.70273495 416.26748681 C163.74628423 416.26227132 164.78983351 416.25705582 165.86500549 416.25168228 C166.76657159 416.25135758 167.66813768 416.25103287 168.59702396 416.25069833 C171.19819266 415.9793229 172.80979728 415.41589183 175 414 C176.03741455 411.72296412 176.03741455 411.72296412 176.55085754 408.93626404 C176.79023859 407.85030378 177.02961964 406.76434353 177.27625465 405.64547539 C178.63936592 398.77954027 179.94465258 391.9085383 181.1862793 385.01977539 C181.49180907 383.34135066 181.79767601 381.66298727 182.10385132 379.98468018 C182.92762439 375.46314332 183.74639901 370.9407152 184.56398368 366.41805577 C185.24838156 362.63494565 185.93532968 358.85230046 186.62228709 355.06965441 C188.24205886 346.15051182 189.85784112 337.23065309 191.47094727 328.31030273 C193.13424817 319.11270102 194.80364092 309.9162201 196.47611111 300.72028166 C197.91461776 292.80978032 199.34971367 284.89866568 200.7819894 276.98703378 C201.63634399 272.26780617 202.49191108 267.54880699 203.35062218 262.83036995 C204.15651125 258.40117645 204.95812373 253.97122998 205.75643539 249.54066467 C206.05000493 247.91540709 206.34506975 246.29041879 206.64173698 244.6657238 C207.0463238 242.44864173 207.44549308 240.23065009 207.8433075 238.01234436 C208.1803698 236.15111734 208.1803698 236.15111734 208.52424145 234.25228977 C208.93649781 231.43410156 209.09957752 228.8398462 209 226 C207.82413188 225.99641747 207.82413188 225.99641747 206.62450886 225.99276257 C187.55388071 225.93363735 168.48338226 225.8581032 149.41289234 225.76428509 C140.19055638 225.71931148 130.96825918 225.67990043 121.74584961 225.65356445 C113.70798808 225.63059704 105.67024903 225.59721311 97.63248461 225.55129844 C93.37618005 225.52734922 89.1199969 225.5086316 84.86362648 225.50238609 C80.85726216 225.49634289 76.8512086 225.47637093 72.84495926 225.44572449 C71.37481658 225.43693196 69.90463332 225.4332242 68.43446541 225.43499184 C66.42618933 225.43664405 64.41792679 225.41818201 62.40974426 225.39872742 C60.72424579 225.39181397 60.72424579 225.39181397 59.00469685 225.38476086 C54.56173319 224.81582542 51.93492341 223.20845995 49.2109375 219.6875 C47.8143752 216.58803271 47.59906004 214.3894878 47.625 211 C47.61726562 209.989375 47.60953125 208.97875 47.6015625 207.9375 C48.06574059 204.51532431 48.8906745 202.72646441 51 200 C55.05569417 196.93699787 58.5222118 196.57204137 63.45013428 196.62145996 C64.19126284 196.61692983 64.9323914 196.6123997 65.6959784 196.6077323 C68.1747772 196.5961224 70.65303489 196.60574951 73.13183594 196.61523438 C74.91105497 196.6111285 76.69027132 196.60566754 78.46948242 196.59895325 C82.29943832 196.58722888 86.12925011 196.58474377 89.95922089 196.58930969 C96.0194585 196.59612006 102.07950665 196.58024913 108.13970947 196.56091309 C121.00979609 196.52304636 133.87986623 196.51026159 146.75 196.5 C160.6309015 196.48892385 174.51171571 196.47352158 188.39255738 196.42928743 C194.41223935 196.41096022 200.43170474 196.40702873 206.45140791 196.41422272 C210.2037959 196.41574844 213.95607634 196.40493592 217.70843506 196.39084435 C219.44299157 196.3868537 221.17756873 196.38794614 222.912117 196.39461708 C235.26410247 196.51496944 235.26410247 196.51496944 247 193 C251.59148889 188.29372389 252.35499181 184.93085276 252.28125 178.54296875 C251.86818756 174.80819582 250.49125668 172.76058172 248 170 C242.56026694 165.95507029 237.27564324 165.87488566 230.66319656 165.86857224 C229.93074628 165.8665196 229.19829599 165.86446697 228.44365025 165.86235213 C225.9820496 165.85668439 223.52050495 165.8581391 221.05889893 165.85955811 C219.27908347 165.85697435 217.4992686 165.85396116 215.71945453 165.8505547 C210.82264401 165.84248282 205.92584814 165.84069503 201.02903175 165.83995724 C195.75009391 165.83810703 190.47116367 165.83055989 185.19223022 165.82382202 C173.64683671 165.81023719 162.10144666 165.80421385 150.55604649 165.79981136 C143.34850808 165.7970494 136.14097103 165.79281214 128.93343353 165.78830719 C108.98170175 165.77611471 89.02997105 165.7658151 69.07823563 165.7624321 C67.80116723 165.76221253 66.52409883 165.76199297 65.20833139 165.76176675 C63.28812455 165.76143933 63.28812455 165.76143933 61.32912564 165.7611053 C58.73504209 165.76066183 56.14095855 165.76021527 53.546875 165.75976562 C52.26011772 165.7595442 50.97336044 165.75932277 49.64761052 165.75909463 C28.79297799 165.75514578 7.93838039 165.73768903 -12.91623864 165.7144061 C-34.32226668 165.69070024 -55.7282772 165.67823061 -77.13431859 165.67706418 C-89.15510412 165.67614703 -101.17584413 165.67038457 -113.19661713 165.65224457 C-123.43156262 165.63685398 -133.66644853 165.631717 -143.9014034 165.63998267 C-149.12373518 165.64389275 -154.34594695 165.64294203 -159.56826401 165.62892532 C-164.35009853 165.61620817 -169.13172258 165.61736475 -173.91355672 165.62951604 C-175.64236012 165.63147681 -177.37117831 165.62837708 -179.09996089 165.61967167 C-193.4309818 165.0438305 -193.4309818 165.0438305 -205.5 171.5625 Z " fill="#ECD9C4" transform="translate(234,35)"/>
<path d="M0 0 C0.928125 0.61875 0.928125 0.61875 1.875 1.25 C2.555625 1.6625 3.23625 2.075 3.9375 2.5 C11.31615028 7.41910018 16.56575867 14.69886485 18.875 23.25 C19.16531766 26.42906719 19.16881125 29.59367344 19.16552734 32.78442383 C19.17224457 33.72669327 19.17896179 34.66896271 19.18588257 35.63978577 C19.20483387 38.74558835 19.20878538 41.85117449 19.2109375 44.95703125 C19.21736757 47.12408028 19.22409609 49.29112844 19.23110962 51.45817566 C19.24307534 55.99826062 19.24679118 60.53826953 19.24560547 65.07836914 C19.24540236 70.88206502 19.27269962 76.68527078 19.30714989 82.48885059 C19.32944097 86.96455606 19.33344232 91.440144 19.33238602 95.91589928 C19.33473883 98.05482356 19.34354421 100.19375125 19.35905075 102.33262062 C19.37875435 105.33122216 19.37285517 108.32877234 19.36083984 111.32739258 C19.37207886 112.2019812 19.38331787 113.07656982 19.39489746 113.97766113 C19.29994685 123.35263719 15.32323119 131.48554425 8.875 138.25 C-1.38748851 146.86709779 -11.18307807 148.05805555 -24.125 147.25 C-33.55847569 145.76121618 -40.57059723 139.73744501 -46.0625 132.1875 C-50.6348087 125.51819865 -51.4236337 119.59197749 -51.41552734 111.71557617 C-51.42224457 110.77330673 -51.42896179 109.83103729 -51.43588257 108.86021423 C-51.45483387 105.75441165 -51.45878538 102.64882551 -51.4609375 99.54296875 C-51.46736757 97.37591972 -51.47409609 95.20887156 -51.48110962 93.04182434 C-51.49307534 88.50173938 -51.49679118 83.96173047 -51.49560547 79.42163086 C-51.49540236 73.61793498 -51.52269962 67.81472922 -51.55714989 62.01114941 C-51.57944097 57.53544394 -51.58344232 53.059856 -51.58238602 48.58410072 C-51.58473883 46.44517644 -51.59354421 44.30624875 -51.60905075 42.16737938 C-51.62875435 39.16877784 -51.62285517 36.17122766 -51.61083984 33.17260742 C-51.62207886 32.2980188 -51.63331787 31.42343018 -51.64489746 30.52233887 C-51.55001848 21.15443431 -47.57759181 13.00462802 -41.125 6.25 C-30.16467897 -2.81814834 -13.30378283 -7.48337784 0 0 Z M-19.125 28.25 C-21.54924276 31.98705467 -21.40772629 35.683534 -21.38378906 39.984375 C-21.3872937 40.75881958 -21.39079834 41.53326416 -21.39440918 42.33117676 C-21.40320155 44.88754273 -21.3973862 47.44363128 -21.390625 50 C-21.39197237 51.77832085 -21.3939135 53.55664135 -21.39642334 55.33496094 C-21.39937122 59.06058258 -21.39508775 62.78610827 -21.38574219 66.51171875 C-21.37434785 71.28675982 -21.38090912 76.06157606 -21.39288712 80.83660889 C-21.40011477 84.50831801 -21.39781362 88.17997384 -21.39263153 91.85168457 C-21.39129754 93.61234565 -21.39293398 95.37301157 -21.39759064 97.13366699 C-21.40267073 99.59445 -21.39492486 102.05486909 -21.38378906 104.515625 C-21.38783752 105.2430188 -21.39188599 105.9704126 -21.39605713 106.71984863 C-21.36527464 110.39241915 -21.15022936 113.1280384 -19.125 116.25 C-17.145 116.25 -15.165 116.25 -13.125 116.25 C-10.70075724 112.51294533 -10.84227371 108.816466 -10.86621094 104.515625 C-10.8627063 103.74118042 -10.85920166 102.96673584 -10.85559082 102.16882324 C-10.84679845 99.61245727 -10.8526138 97.05636872 -10.859375 94.5 C-10.85802763 92.72167915 -10.8560865 90.94335865 -10.85357666 89.16503906 C-10.85062878 85.43941742 -10.85491225 81.71389173 -10.86425781 77.98828125 C-10.87565215 73.21324018 -10.86909088 68.43842394 -10.85711288 63.66339111 C-10.84988523 59.99168199 -10.85218638 56.32002616 -10.85736847 52.64831543 C-10.85870246 50.88765435 -10.85706602 49.12698843 -10.85240936 47.36633301 C-10.84732927 44.90555 -10.85507514 42.44513091 -10.86621094 39.984375 C-10.86216248 39.2569812 -10.85811401 38.5295874 -10.85394287 37.78015137 C-10.88472536 34.10758085 -11.09977064 31.3719616 -13.125 28.25 C-15.105 28.25 -17.085 28.25 -19.125 28.25 Z " fill="#ECD9C4" transform="translate(372.125,283.75)"/>
<path d="M0 0 C0.928125 0.61875 0.928125 0.61875 1.875 1.25 C2.555625 1.6625 3.23625 2.075 3.9375 2.5 C11.31615028 7.41910018 16.56575867 14.69886485 18.875 23.25 C19.16531766 26.42906719 19.16881125 29.59367344 19.16552734 32.78442383 C19.17224457 33.72669327 19.17896179 34.66896271 19.18588257 35.63978577 C19.20483387 38.74558835 19.20878538 41.85117449 19.2109375 44.95703125 C19.21736757 47.12408028 19.22409609 49.29112844 19.23110962 51.45817566 C19.24307534 55.99826062 19.24679118 60.53826953 19.24560547 65.07836914 C19.24540236 70.88206502 19.27269962 76.68527078 19.30714989 82.48885059 C19.32944097 86.96455606 19.33344232 91.440144 19.33238602 95.91589928 C19.33473883 98.05482356 19.34354421 100.19375125 19.35905075 102.33262062 C19.37875435 105.33122216 19.37285517 108.32877234 19.36083984 111.32739258 C19.37207886 112.2019812 19.38331787 113.07656982 19.39489746 113.97766113 C19.29994685 123.35263719 15.32323119 131.48554425 8.875 138.25 C-1.38748851 146.86709779 -11.18307807 148.05805555 -24.125 147.25 C-33.55847569 145.76121618 -40.57059723 139.73744501 -46.0625 132.1875 C-50.6348087 125.51819865 -51.4236337 119.59197749 -51.41552734 111.71557617 C-51.42224457 110.77330673 -51.42896179 109.83103729 -51.43588257 108.86021423 C-51.45483387 105.75441165 -51.45878538 102.64882551 -51.4609375 99.54296875 C-51.46736757 97.37591972 -51.47409609 95.20887156 -51.48110962 93.04182434 C-51.49307534 88.50173938 -51.49679118 83.96173047 -51.49560547 79.42163086 C-51.49540236 73.61793498 -51.52269962 67.81472922 -51.55714989 62.01114941 C-51.57944097 57.53544394 -51.58344232 53.059856 -51.58238602 48.58410072 C-51.58473883 46.44517644 -51.59354421 44.30624875 -51.60905075 42.16737938 C-51.62875435 39.16877784 -51.62285517 36.17122766 -51.61083984 33.17260742 C-51.62207886 32.2980188 -51.63331787 31.42343018 -51.64489746 30.52233887 C-51.55001848 21.15443431 -47.57759181 13.00462802 -41.125 6.25 C-30.16467897 -2.81814834 -13.30378283 -7.48337784 0 0 Z M-19.125 28.25 C-21.54924276 31.98705467 -21.40772629 35.683534 -21.38378906 39.984375 C-21.3872937 40.75881958 -21.39079834 41.53326416 -21.39440918 42.33117676 C-21.40320155 44.88754273 -21.3973862 47.44363128 -21.390625 50 C-21.39197237 51.77832085 -21.3939135 53.55664135 -21.39642334 55.33496094 C-21.39937122 59.06058258 -21.39508775 62.78610827 -21.38574219 66.51171875 C-21.37434785 71.28675982 -21.38090912 76.06157606 -21.39288712 80.83660889 C-21.40011477 84.50831801 -21.39781362 88.17997384 -21.39263153 91.85168457 C-21.39129754 93.61234565 -21.39293398 95.37301157 -21.39759064 97.13366699 C-21.40267073 99.59445 -21.39492486 102.05486909 -21.38378906 104.515625 C-21.38783752 105.2430188 -21.39188599 105.9704126 -21.39605713 106.71984863 C-21.36527464 110.39241915 -21.15022936 113.1280384 -19.125 116.25 C-17.145 116.25 -15.165 116.25 -13.125 116.25 C-10.70075724 112.51294533 -10.84227371 108.816466 -10.86621094 104.515625 C-10.8627063 103.74118042 -10.85920166 102.96673584 -10.85559082 102.16882324 C-10.84679845 99.61245727 -10.8526138 97.05636872 -10.859375 94.5 C-10.85802763 92.72167915 -10.8560865 90.94335865 -10.85357666 89.16503906 C-10.85062878 85.43941742 -10.85491225 81.71389173 -10.86425781 77.98828125 C-10.87565215 73.21324018 -10.86909088 68.43842394 -10.85711288 63.66339111 C-10.84988523 59.99168199 -10.85218638 56.32002616 -10.85736847 52.64831543 C-10.85870246 50.88765435 -10.85706602 49.12698843 -10.85240936 47.36633301 C-10.84732927 44.90555 -10.85507514 42.44513091 -10.86621094 39.984375 C-10.86216248 39.2569812 -10.85811401 38.5295874 -10.85394287 37.78015137 C-10.88472536 34.10758085 -11.09977064 31.3719616 -13.125 28.25 C-15.105 28.25 -17.085 28.25 -19.125 28.25 Z " fill="#ECD9C4" transform="translate(272.125,283.75)"/>
<path d="M0 0 C0.928125 0.61875 0.928125 0.61875 1.875 1.25 C2.555625 1.6625 3.23625 2.075 3.9375 2.5 C11.31615028 7.41910018 16.56575867 14.69886485 18.875 23.25 C19.16531766 26.42906719 19.16881125 29.59367344 19.16552734 32.78442383 C19.17224457 33.72669327 19.17896179 34.66896271 19.18588257 35.63978577 C19.20483387 38.74558835 19.20878538 41.85117449 19.2109375 44.95703125 C19.21736757 47.12408028 19.22409609 49.29112844 19.23110962 51.45817566 C19.24307534 55.99826062 19.24679118 60.53826953 19.24560547 65.07836914 C19.24540236 70.88206502 19.27269962 76.68527078 19.30714989 82.48885059 C19.32944097 86.96455606 19.33344232 91.440144 19.33238602 95.91589928 C19.33473883 98.05482356 19.34354421 100.19375125 19.35905075 102.33262062 C19.37875435 105.33122216 19.37285517 108.32877234 19.36083984 111.32739258 C19.37207886 112.2019812 19.38331787 113.07656982 19.39489746 113.97766113 C19.29994685 123.35263719 15.32323119 131.48554425 8.875 138.25 C-1.38748851 146.86709779 -11.18307807 148.05805555 -24.125 147.25 C-33.55847569 145.76121618 -40.57059723 139.73744501 -46.0625 132.1875 C-50.6348087 125.51819865 -51.4236337 119.59197749 -51.41552734 111.71557617 C-51.42224457 110.77330673 -51.42896179 109.83103729 -51.43588257 108.86021423 C-51.45483387 105.75441165 -51.45878538 102.64882551 -51.4609375 99.54296875 C-51.46736757 97.37591972 -51.47409609 95.20887156 -51.48110962 93.04182434 C-51.49307534 88.50173938 -51.49679118 83.96173047 -51.49560547 79.42163086 C-51.49540236 73.61793498 -51.52269962 67.81472922 -51.55714989 62.01114941 C-51.57944097 57.53544394 -51.58344232 53.059856 -51.58238602 48.58410072 C-51.58473883 46.44517644 -51.59354421 44.30624875 -51.60905075 42.16737938 C-51.62875435 39.16877784 -51.62285517 36.17122766 -51.61083984 33.17260742 C-51.62207886 32.2980188 -51.63331787 31.42343018 -51.64489746 30.52233887 C-51.55001848 21.15443431 -47.57759181 13.00462802 -41.125 6.25 C-30.16467897 -2.81814834 -13.30378283 -7.48337784 0 0 Z M-19.125 28.25 C-21.54924276 31.98705467 -21.40772629 35.683534 -21.38378906 39.984375 C-21.3872937 40.75881958 -21.39079834 41.53326416 -21.39440918 42.33117676 C-21.40320155 44.88754273 -21.3973862 47.44363128 -21.390625 50 C-21.39197237 51.77832085 -21.3939135 53.55664135 -21.39642334 55.33496094 C-21.39937122 59.06058258 -21.39508775 62.78610827 -21.38574219 66.51171875 C-21.37434785 71.28675982 -21.38090912 76.06157606 -21.39288712 80.83660889 C-21.40011477 84.50831801 -21.39781362 88.17997384 -21.39263153 91.85168457 C-21.39129754 93.61234565 -21.39293398 95.37301157 -21.39759064 97.13366699 C-21.40267073 99.59445 -21.39492486 102.05486909 -21.38378906 104.515625 C-21.38783752 105.2430188 -21.39188599 105.9704126 -21.39605713 106.71984863 C-21.36527464 110.39241915 -21.15022936 113.1280384 -19.125 116.25 C-17.145 116.25 -15.165 116.25 -13.125 116.25 C-10.70075724 112.51294533 -10.84227371 108.816466 -10.86621094 104.515625 C-10.8627063 103.74118042 -10.85920166 102.96673584 -10.85559082 102.16882324 C-10.84679845 99.61245727 -10.8526138 97.05636872 -10.859375 94.5 C-10.85802763 92.72167915 -10.8560865 90.94335865 -10.85357666 89.16503906 C-10.85062878 85.43941742 -10.85491225 81.71389173 -10.86425781 77.98828125 C-10.87565215 73.21324018 -10.86909088 68.43842394 -10.85711288 63.66339111 C-10.84988523 59.99168199 -10.85218638 56.32002616 -10.85736847 52.64831543 C-10.85870246 50.88765435 -10.85706602 49.12698843 -10.85240936 47.36633301 C-10.84732927 44.90555 -10.85507514 42.44513091 -10.86621094 39.984375 C-10.86216248 39.2569812 -10.85811401 38.5295874 -10.85394287 37.78015137 C-10.88472536 34.10758085 -11.09977064 31.3719616 -13.125 28.25 C-15.105 28.25 -17.085 28.25 -19.125 28.25 Z " fill="#ECD9C4" transform="translate(172.125,283.75)"/>
<path d="M0 0 C3.125 1.875 3.125 1.875 5 5 C5.98876625 10.02622846 5.7769173 13.70513784 3.125 18.125 C-1.29486216 20.7769173 -4.97377154 20.98876625 -10 20 C-13.125 18.125 -13.125 18.125 -15 15 C-15.98876625 9.97377154 -15.7769173 6.29486216 -13.125 1.875 C-8.70513784 -0.7769173 -5.02622846 -0.98876625 0 0 Z " fill="#ECD9C4" transform="translate(261,236)"/>
</svg>
