<svg width="20" height="20" viewBox="0 0 20 20" fill="none" xmlns="http://www.w3.org/2000/svg">
<path d="M18.125 5.97258H14.2938L11.7938 0.396681C11.7124 0.24494 11.5829 0.133356 11.4312 0.0843315C11.2796 0.0353072 11.117 0.0524724 10.9762 0.13238C10.8354 0.212288 10.7267 0.349024 10.672 0.515133C10.6173 0.681243 10.6206 0.864429 10.6813 1.02791L12.8937 5.97258H7.10625L9.30625 1.06298C9.35056 0.980343 9.37921 0.888334 9.3904 0.792708C9.40159 0.697081 9.39509 0.599891 9.3713 0.507212C9.34751 0.414534 9.30694 0.328358 9.25212 0.25407C9.19731 0.179782 9.12943 0.118978 9.05274 0.0754588C8.97604 0.0319396 8.89216 0.00663981 8.80636 0.00114092C8.72055 -0.00435798 8.63466 0.010062 8.55404 0.0434997C8.47343 0.0769374 8.39982 0.128674 8.33783 0.195477C8.27584 0.26228 8.22679 0.342713 8.19375 0.431749L5.69375 6.04272H1.875C1.37772 6.04272 0.900805 6.2644 0.549175 6.659C0.197544 7.0536 0 7.58879 0 8.14683V8.46245C0.0161599 8.92452 0.19118 9.36162 0.488333 9.682C0.785485 10.0024 1.18167 10.1812 1.59375 10.1808L3.81875 18.0432C3.97925 18.6107 4.2965 19.1062 4.72459 19.458C5.15268 19.8098 5.66941 19.9996 6.2 20H13.8C14.3306 19.9996 14.8473 19.8098 15.2754 19.458C15.7035 19.1062 16.0207 18.6107 16.1812 18.0432L18.4063 10.1808C18.8289 10.1808 19.2343 9.99238 19.5332 9.65697C19.8321 9.32156 20 8.86665 20 8.39231V8.07669C20 7.51865 19.8025 6.98346 19.4508 6.58886C19.0992 6.19426 18.6223 5.97258 18.125 5.97258ZM18.75 8.39231C18.7508 8.44323 18.7425 8.49382 18.7256 8.54105C18.7086 8.58828 18.6833 8.63119 18.6512 8.6672C18.6191 8.70321 18.5809 8.73159 18.5388 8.75064C18.4967 8.76969 18.4516 8.77902 18.4063 8.77806C18.1419 8.77876 17.8845 8.87351 17.6711 9.04868C17.4578 9.22385 17.2994 9.47043 17.2187 9.75297L15 17.6224C14.9187 17.9072 14.7584 18.1554 14.5426 18.3308C14.3267 18.5062 14.0665 18.5995 13.8 18.5973H6.2C5.93349 18.5995 5.67331 18.5062 5.45743 18.3308C5.24156 18.1554 5.08128 17.9072 5 17.6224L2.78125 9.75297C2.70062 9.47043 2.54223 9.22385 2.32886 9.04868C2.11549 8.87351 1.85812 8.77876 1.59375 8.77806C1.54837 8.77902 1.50329 8.76969 1.46121 8.75064C1.41912 8.73159 1.38088 8.70321 1.34879 8.6672C1.3167 8.63119 1.29141 8.58828 1.27444 8.54105C1.25746 8.49382 1.24915 8.44323 1.25 8.39231V8.07669C1.25 7.89068 1.31585 7.71228 1.43306 7.58075C1.55027 7.44922 1.70924 7.37532 1.875 7.37532H5.08125L4.60625 8.44141C4.47152 8.61564 4.39236 8.83528 4.38125 9.06563C4.38365 9.07716 4.38365 9.08916 4.38125 9.10069C4.38147 9.27108 4.41857 9.43885 4.48935 9.58958C4.56012 9.74032 4.66247 9.86951 4.78758 9.96605C4.91268 10.0626 5.05681 10.1236 5.20757 10.1438C5.35833 10.164 5.5112 10.1428 5.65305 10.082C5.7949 10.0213 5.92148 9.92278 6.0219 9.79499C6.12232 9.6672 6.19358 9.51395 6.22955 9.34842C6.26553 9.18289 6.26514 9.01003 6.22842 8.84471C6.1917 8.67939 6.11975 8.52654 6.01875 8.39932L6.48125 7.37532H13.5187L13.9875 8.43439C13.8865 8.56161 13.8146 8.71445 13.7778 8.87978C13.7411 9.0451 13.7407 9.21796 13.7767 9.38349C13.8127 9.54902 13.8839 9.70227 13.9844 9.83006C14.0848 9.95785 14.2114 10.0564 14.3532 10.1171C14.495 10.1779 14.6479 10.1991 14.7987 10.1788C14.9494 10.1586 15.0936 10.0977 15.2187 10.0011C15.3438 9.90458 15.4461 9.77539 15.5169 9.62465C15.5877 9.47392 15.6248 9.30615 15.625 9.13576C15.6226 9.12423 15.6226 9.11223 15.625 9.10069C15.6139 8.87035 15.5347 8.65071 15.4 8.47647L14.9188 7.37532H18.125C18.2908 7.37532 18.4497 7.44922 18.5669 7.58075C18.6842 7.71228 18.75 7.89068 18.75 8.07669V8.39231Z" fill="#ECD9C4"/>
<path d="M10 10.8822C9.83424 10.8822 9.67527 10.9561 9.55806 11.0876C9.44085 11.2191 9.375 11.3975 9.375 11.5835V15.7918C9.375 15.9778 9.44085 16.1562 9.55806 16.2877C9.67527 16.4192 9.83424 16.4931 10 16.4931C10.1658 16.4931 10.3247 16.4192 10.4419 16.2877C10.5592 16.1562 10.625 15.9778 10.625 15.7918V11.5835C10.625 11.3975 10.5592 11.2191 10.4419 11.0876C10.3247 10.9561 10.1658 10.8822 10 10.8822Z" fill="#ECD9C4"/>
<path d="M6.875 11.3591C6.82196 11.1824 6.70853 11.0366 6.55968 10.9537C6.41082 10.8708 6.23873 10.8577 6.08125 10.9172C5.92378 10.9768 5.79383 11.1041 5.71999 11.2711C5.64615 11.4382 5.63446 11.6313 5.6875 11.808L6.9375 16.0162C6.97761 16.15 7.05275 16.2671 7.15311 16.3522C7.25347 16.4373 7.37437 16.4864 7.5 16.4931C7.5664 16.5028 7.63361 16.5028 7.7 16.4931C7.78457 16.4681 7.86351 16.4233 7.9317 16.3619C7.9999 16.3004 8.05584 16.2235 8.0959 16.1363C8.13596 16.049 8.15925 15.9533 8.16426 15.8553C8.16927 15.7573 8.1559 15.6592 8.125 15.5673L6.875 11.3591Z" fill="#ECD9C4"/>
<path d="M13.95 10.9172C13.872 10.8875 13.7896 10.8754 13.7075 10.8816C13.6253 10.8877 13.545 10.912 13.4713 10.9531C13.3975 10.9941 13.3317 11.0511 13.2777 11.1208C13.2236 11.1905 13.1823 11.2715 13.1562 11.3591L11.9062 15.5673C11.8748 15.6569 11.8602 15.7527 11.8632 15.8489C11.8662 15.945 11.8868 16.0395 11.9238 16.1263C11.9607 16.2131 12.0132 16.2905 12.0779 16.3536C12.1426 16.4167 12.2182 16.4642 12.3 16.4931C12.3664 16.5028 12.4336 16.5028 12.5 16.4931C12.631 16.4935 12.7588 16.4477 12.8654 16.3621C12.9719 16.2765 13.0518 16.1555 13.0937 16.0162L14.3437 11.808C14.3702 11.7205 14.381 11.628 14.3756 11.5358C14.3701 11.4436 14.3484 11.3536 14.3118 11.2708C14.2752 11.188 14.2244 11.1142 14.1623 11.0535C14.1003 10.9928 14.0281 10.9465 13.95 10.9172Z" fill="#ECD9C4"/>
</svg>
