<svg width="512" height="512" version="1.1" xmlns="http://www.w3.org/2000/svg" desc="Created with imagetracer.js version 1.2.6" ><path fill="rgb(0,0,0)" stroke="rgb(0,0,0)" stroke-width="1" opacity="0" d="M 0 0 L 512 0 L 512 512 L 0 512 L 0 0 Z M 244 26 L 243 27 L 232 27 L 231 28 L 224 28 L 207 31 Q 182 36 162 46 Q 124 63 97 90 Q 65 120 46 162 L 32 203 L 28 224 L 27 244 L 26 245 L 27 281 L 32 310 Q 40 345 57 372 L 67 379 Q 77 381 82 376 Q 87 372 88 365 L 87 357 L 76 337 L 68 316 L 62 292 L 61 279 L 60 278 L 60 268 L 59 267 L 59 246 L 60 245 L 61 227 L 69 194 Q 82 156 106 129 Q 133 97 172 78 L 197 68 L 216 63 L 233 61 L 234 60 L 244 60 L 245 59 L 261 59 L 268 55 L 272 49 L 273 44 L 270 34 Q 267 28 260 26 L 244 26 Z M 353 26 L 346 29 Q 341 32 339 39 Q 338 48 341 52 L 351 59 L 429 60 L 263 226 L 261 231 Q 260 240 263 244 L 273 251 Q 282 252 287 249 L 453 83 L 453 162 L 455 166 L 465 173 Q 475 175 480 170 Q 484 166 486 160 L 486 41 L 483 33 Q 480 27 473 26 L 353 26 Z M 464 240 L 459 243 L 453 252 L 453 267 L 452 268 L 452 278 L 451 279 L 450 292 L 444 316 L 438 332 L 423 361 L 396 395 L 370 417 L 339 435 L 316 444 L 297 449 L 279 451 L 278 452 L 268 452 L 267 453 L 235 452 L 204 446 L 183 439 L 152 424 Q 144 424 140 427 L 133 437 Q 131 445 135 450 L 144 457 Q 162 468 185 475 L 212 482 L 231 484 L 232 485 L 244 485 L 245 486 L 269 486 L 270 485 L 289 484 L 306 481 L 334 473 Q 381 455 415 423 Q 446 393 466 351 L 480 310 L 484 289 L 485 269 L 486 268 Q 488 255 484 248 L 475 240 L 464 240 Z " /><path fill="rgb(106,76,72)" stroke="rgb(106,76,72)" stroke-width="1" opacity="0.5176470588235295" d="M 243.5 26 L 260 26.5 L 243.5 27 L 243.5 26 Z " /><path fill="rgb(106,76,72)" stroke="rgb(106,76,72)" stroke-width="1" opacity="0.5176470588235295" d="M 352.5 26 L 473 26.5 L 352.5 27 L 352.5 26 Z " /><path fill="rgb(106,76,72)" stroke="rgb(106,76,72)" stroke-width="1" opacity="0.5176470588235295" d="M 231.5 27 L 240 27.5 L 231.5 28 L 231.5 27 Z " /><path fill="rgb(106,76,72)" stroke="rgb(106,76,72)" stroke-width="1" opacity="0.5176470588235295" d="M 261.5 27 Q 267.6 28.4 270 33.5 L 264.5 29 Q 260.8 28.7 261.5 27 Z " /><path fill="rgb(106,76,72)" stroke="rgb(106,76,72)" stroke-width="1" opacity="0.5176470588235295" d="M 474.5 27 Q 480.9 27.7 483 32.5 L 485 38.5 L 484 38.5 Q 483.1 31.9 478.5 29 L 474.5 28 L 474.5 27 Z " /><path fill="rgb(106,76,72)" stroke="rgb(106,76,72)" stroke-width="1" opacity="0.5176470588235295" d="M 223.5 28 L 229 28.5 L 223.5 29 L 223.5 28 Z " /><path fill="rgb(106,76,72)" stroke="rgb(106,76,72)" stroke-width="1" opacity="0.5176470588235295" d="M 347.5 28 L 346.5 30 L 342 33.5 L 340.5 37 L 340 35.5 L 345.5 29 L 347.5 28 Z " /><path fill="rgb(106,76,72)" stroke="rgb(106,76,72)" stroke-width="1" opacity="0.5176470588235295" d="M 217.5 29 L 221 29.5 L 217.5 30 L 217.5 29 Z " /><path fill="rgb(106,76,72)" stroke="rgb(106,76,72)" stroke-width="1" opacity="0.5176470588235295" d="M 211.5 30 L 215 30.5 L 211.5 31 L 211.5 30 Z " /><path fill="rgb(106,76,72)" stroke="rgb(106,76,72)" stroke-width="1" opacity="0.5176470588235295" d="M 206.5 31 L 210 31.5 L 202.5 33 L 202.5 32 L 206.5 31 Z " /><path fill="rgb(106,76,72)" stroke="rgb(106,76,72)" stroke-width="1" opacity="0.5176470588235295" d="M 198.5 33 L 201 33.5 L 198.5 34 L 198.5 33 Z " /><path fill="rgb(106,76,72)" stroke="rgb(106,76,72)" stroke-width="1" opacity="0.5176470588235295" d="M 194.5 34 L 197 34.5 L 191.5 36 L 191.5 35 L 194.5 34 Z " /><path fill="rgb(106,76,72)" stroke="rgb(106,76,72)" stroke-width="1" opacity="0.5176470588235295" d="M 187.5 36 L 190 36.5 L 179.5 40 L 179.5 39 L 187.5 36 Z " /><path fill="rgb(106,76,72)" stroke="rgb(106,76,72)" stroke-width="1" opacity="0.5176470588235295" d="M 339.5 38 Q 338.2 51.8 346.5 56 L 350.5 58 L 430 58 L 430 59.5 L 264 225.5 L 262.5 229 L 262 227.5 L 429 59.5 L 350.5 59 L 341 51.5 Q 337.2 47 339.5 38 Z " /><path fill="rgb(106,76,72)" stroke="rgb(106,76,72)" stroke-width="1" opacity="0.5176470588235295" d="M 485.5 40 L 486 159.5 L 485 159.5 L 485.5 40 Z " /><path fill="rgb(106,76,72)" stroke="rgb(106,76,72)" stroke-width="1" opacity="0.5176470588235295" d="M 173.5 41 L 175 41.5 L 166.5 45 L 166.5 44 L 173.5 41 Z " /><path fill="rgb(106,76,72)" stroke="rgb(106,76,72)" stroke-width="1" opacity="0.5176470588235295" d="M 272.5 41 L 273 43.5 L 272 43.5 L 272.5 41 Z " /><path fill="rgb(106,76,72)" stroke="rgb(106,76,72)" stroke-width="1" opacity="0.5176470588235295" d="M 161.5 46 L 163 46.5 L 137.5 60 L 138.5 58 L 161.5 46 Z " /><path fill="rgb(106,76,72)" stroke="rgb(106,76,72)" stroke-width="1" opacity="0.5176470588235295" d="M 271.5 46 L 272 48.5 L 267.5 55 L 264.5 57 L 270 50.5 L 271.5 46 Z " /><path fill="rgb(106,76,72)" stroke="rgb(106,76,72)" stroke-width="1" opacity="0.5176470588235295" d="M 261.5 57 L 263 57.5 Q 259.7 60.7 251.5 59 L 251.5 58 L 260.5 58 L 261.5 57 Z " /><path fill="rgb(106,76,72)" stroke="rgb(106,76,72)" stroke-width="1" opacity="0.5176470588235295" d="M 235.5 59 L 244 59.5 L 235.5 60 L 235.5 59 Z " /><path fill="rgb(106,76,72)" stroke="rgb(106,76,72)" stroke-width="1" opacity="0.5176470588235295" d="M 135.5 60 L 134.5 62 Q 104.2 80.2 82 106.5 L 60.5 136 L 61 134.5 Q 75.6 109.1 96.5 90 Q 113.9 72.9 135.5 60 Z " /><path fill="rgb(106,76,72)" stroke="rgb(106,76,72)" stroke-width="1" opacity="0.5176470588235295" d="M 228.5 60 L 233 60.5 L 228.5 61 L 228.5 60 Z " /><path fill="rgb(106,76,72)" stroke="rgb(106,76,72)" stroke-width="1" opacity="0.5176470588235295" d="M 222.5 61 L 226 61.5 L 222.5 62 L 222.5 61 Z " /><path fill="rgb(106,76,72)" stroke="rgb(106,76,72)" stroke-width="1" opacity="0.5176470588235295" d="M 216.5 62 L 220 62.5 L 216.5 63 L 216.5 62 Z " /><path fill="rgb(106,76,72)" stroke="rgb(106,76,72)" stroke-width="1" opacity="0.5176470588235295" d="M 212.5 63 L 215 63.5 L 212.5 64 L 212.5 63 Z " /><path fill="rgb(106,76,72)" stroke="rgb(106,76,72)" stroke-width="1" opacity="0.5176470588235295" d="M 207.5 64 L 211 64.5 L 204.5 66 L 204.5 65 L 207.5 64 Z " /><path fill="rgb(106,76,72)" stroke="rgb(106,76,72)" stroke-width="1" opacity="0.5176470588235295" d="M 200.5 66 L 203 66.5 L 197.5 68 L 197.5 67 L 200.5 66 Z " /><path fill="rgb(106,76,72)" stroke="rgb(106,76,72)" stroke-width="1" opacity="0.5176470588235295" d="M 194.5 68 L 196 68.5 L 186.5 72 L 186.5 71 L 194.5 68 Z " /><path fill="rgb(106,76,72)" stroke="rgb(106,76,72)" stroke-width="1" opacity="0.5176470588235295" d="M 183.5 72 L 185 72.5 L 181.5 74 L 181.5 73 L 183.5 72 Z " /><path fill="rgb(106,76,72)" stroke="rgb(106,76,72)" stroke-width="1" opacity="0.5176470588235295" d="M 178.5 74 L 180 74.5 L 172.5 78 L 172.5 77 L 178.5 74 Z " /><path fill="rgb(106,76,72)" stroke="rgb(106,76,72)" stroke-width="1" opacity="0.5176470588235295" d="M 169.5 78 L 171 78.5 L 168.5 80 L 169.5 78 Z " /><path fill="rgb(106,76,72)" stroke="rgb(106,76,72)" stroke-width="1" opacity="0.5176470588235295" d="M 162.5 82 L 161.5 84 L 157.5 86 L 158.5 84 L 162.5 82 Z " /><path fill="rgb(106,76,72)" stroke="rgb(106,76,72)" stroke-width="1" opacity="0.5176470588235295" d="M 452.5 82 L 454 82.5 L 454 161.5 L 460.5 170 L 464.5 172 L 474 172.5 L 464.5 173 L 455 165.5 L 453 161.5 L 452.5 83 L 286.5 249 L 283.5 250 L 283.5 249 L 286.5 248 L 452.5 82 Z " /><path fill="rgb(106,76,72)" stroke="rgb(106,76,72)" stroke-width="1" opacity="0.5176470588235295" d="M 155.5 86 L 154.5 88 Q 126.2 104.2 106 128.5 L 89.5 151 L 90 149.5 Q 101.9 129.4 118.5 114 Q 134.8 97.8 155.5 86 Z " /><path fill="rgb(106,76,72)" stroke="rgb(106,76,72)" stroke-width="1" opacity="0.5176470588235295" d="M 59.5 137 L 59 138.5 L 46.5 163 L 46 161.5 L 59.5 137 Z " /><path fill="rgb(106,76,72)" stroke="rgb(106,76,72)" stroke-width="1" opacity="0.5176470588235295" d="M 88.5 152 L 88 153.5 L 82.5 163 L 83 161.5 L 88.5 152 Z " /><path fill="rgb(106,76,72)" stroke="rgb(106,76,72)" stroke-width="1" opacity="0.5176470588235295" d="M 45.5 164 L 46 165.5 L 43.5 170 L 43 168.5 L 45.5 164 Z " /><path fill="rgb(106,76,72)" stroke="rgb(106,76,72)" stroke-width="1" opacity="0.5176470588235295" d="M 483.5 164 L 483 165.5 L 479.5 170 L 475.5 172 L 475.5 171 L 482 166.5 L 483.5 164 Z " /><path fill="rgb(106,76,72)" stroke="rgb(106,76,72)" stroke-width="1" opacity="0.5176470588235295" d="M 79.5 168 L 79 169.5 L 78.5 171 L 78 169.5 L 79.5 168 Z " /><path fill="rgb(106,76,72)" stroke="rgb(106,76,72)" stroke-width="1" opacity="0.5176470588235295" d="M 42.5 171 L 43 172.5 L 40.5 178 L 40 176.5 L 42.5 171 Z " /><path fill="rgb(106,76,72)" stroke="rgb(106,76,72)" stroke-width="1" opacity="0.5176470588235295" d="M 77.5 172 L 78 173.5 L 74.5 180 L 74 178.5 L 77.5 172 Z " /><path fill="rgb(106,76,72)" stroke="rgb(106,76,72)" stroke-width="1" opacity="0.5176470588235295" d="M 73.5 181 L 74 182.5 L 72.5 185 L 72 183.5 L 73.5 181 Z " /><path fill="rgb(106,76,72)" stroke="rgb(106,76,72)" stroke-width="1" opacity="0.5176470588235295" d="M 71.5 186 L 72 187.5 L 69.5 193 L 69 191.5 L 71.5 186 Z " /><path fill="rgb(106,76,72)" stroke="rgb(106,76,72)" stroke-width="1" opacity="0.5176470588235295" d="M 35.5 191 L 36 193.5 L 35 193.5 L 35.5 191 Z " /><path fill="rgb(106,76,72)" stroke="rgb(106,76,72)" stroke-width="1" opacity="0.5176470588235295" d="M 67.5 197 L 68 199.5 L 66.5 203 L 66 200.5 L 67.5 197 Z " /><path fill="rgb(106,76,72)" stroke="rgb(106,76,72)" stroke-width="1" opacity="0.5176470588235295" d="M 33.5 198 L 34 200.5 L 33 200.5 L 33.5 198 Z " /><path fill="rgb(106,76,72)" stroke="rgb(106,76,72)" stroke-width="1" opacity="0.5176470588235295" d="M 32.5 202 L 33 205.5 L 32 205.5 L 32.5 202 Z " /><path fill="rgb(106,76,72)" stroke="rgb(106,76,72)" stroke-width="1" opacity="0.5176470588235295" d="M 65.5 204 L 66 206.5 L 64.5 211 L 64 207.5 L 65.5 204 Z " /><path fill="rgb(106,76,72)" stroke="rgb(106,76,72)" stroke-width="1" opacity="0.5176470588235295" d="M 31.5 207 L 32 209.5 L 31 209.5 L 31.5 207 Z " /><path fill="rgb(106,76,72)" stroke="rgb(106,76,72)" stroke-width="1" opacity="0.5176470588235295" d="M 30.5 211 L 31 215.5 L 30 215.5 L 30.5 211 Z " /><path fill="rgb(106,76,72)" stroke="rgb(106,76,72)" stroke-width="1" opacity="0.5176470588235295" d="M 63.5 212 L 64 214.5 L 63 214.5 L 63.5 212 Z " /><path fill="rgb(106,76,72)" stroke="rgb(106,76,72)" stroke-width="1" opacity="0.5176470588235295" d="M 62.5 216 L 63 219.5 L 62 219.5 L 62.5 216 Z " /><path fill="rgb(106,76,72)" stroke="rgb(106,76,72)" stroke-width="1" opacity="0.5176470588235295" d="M 29.5 217 L 30 220.5 L 29 220.5 L 29.5 217 Z " /><path fill="rgb(106,76,72)" stroke="rgb(106,76,72)" stroke-width="1" opacity="0.5176470588235295" d="M 61.5 222 L 62 225.5 L 61 225.5 L 61.5 222 Z " /><path fill="rgb(106,76,72)" stroke="rgb(106,76,72)" stroke-width="1" opacity="0.5176470588235295" d="M 28.5 223 L 29 228.5 L 28 228.5 L 28.5 223 Z " /><path fill="rgb(106,76,72)" stroke="rgb(106,76,72)" stroke-width="1" opacity="0.5176470588235295" d="M 60.5 228 L 61 233.5 L 60 233.5 L 60.5 228 Z " /><path fill="rgb(106,76,72)" stroke="rgb(106,76,72)" stroke-width="1" opacity="0.5176470588235295" d="M 261.5 230 Q 260.2 243.8 268.5 248 L 272.5 250 L 282 250.5 L 272.5 251 L 263 243.5 Q 259.2 239 261.5 230 Z " /><path fill="rgb(106,76,72)" stroke="rgb(106,76,72)" stroke-width="1" opacity="0.5176470588235295" d="M 27.5 231 L 28 239.5 L 27 239.5 L 27.5 231 Z " /><path fill="rgb(106,76,72)" stroke="rgb(106,76,72)" stroke-width="1" opacity="0.5176470588235295" d="M 59.5 236 L 60 244.5 L 59 244.5 L 59.5 236 Z " /><path fill="rgb(106,76,72)" stroke="rgb(106,76,72)" stroke-width="1" opacity="0.5176470588235295" d="M 463.5 240 L 466 240.5 L 458 244 L 455.5 248 L 456 246.5 L 458.5 243 L 463.5 240 Z " /><path fill="rgb(106,76,72)" stroke="rgb(106,76,72)" stroke-width="1" opacity="0.5176470588235295" d="M 472.5 240 L 475 240.5 L 472.5 241 L 472.5 240 Z " /><path fill="rgb(106,76,72)" stroke="rgb(106,76,72)" stroke-width="1" opacity="0.5176470588235295" d="M 476.5 241 L 484 247.5 L 485 251.5 L 484 251.5 Q 483.4 245.2 478.5 243 L 476.5 241 Z " /><path fill="rgb(106,76,72)" stroke="rgb(106,76,72)" stroke-width="1" opacity="0.5176470588235295" d="M 26.5 244 L 27 266.5 L 26 266.5 L 26.5 244 Z " /><path fill="rgb(106,76,72)" stroke="rgb(106,76,72)" stroke-width="1" opacity="0.5176470588235295" d="M 454.5 249 L 455 250.5 L 453.5 258 L 453 251.5 L 454.5 249 Z " /><path fill="rgb(106,76,72)" stroke="rgb(106,76,72)" stroke-width="1" opacity="0.5176470588235295" d="M 485.5 253 L 486 267.5 L 485 267.5 L 485.5 253 Z " /><path fill="rgb(106,76,72)" stroke="rgb(106,76,72)" stroke-width="1" opacity="0.5176470588235295" d="M 58.5 254 L 59 258.5 L 58 258.5 L 58.5 254 Z " /><path fill="rgb(106,76,72)" stroke="rgb(106,76,72)" stroke-width="1" opacity="0.5176470588235295" d="M 59.5 267 L 60 275.5 L 59 275.5 L 59.5 267 Z " /><path fill="rgb(106,76,72)" stroke="rgb(106,76,72)" stroke-width="1" opacity="0.5176470588235295" d="M 452.5 267 L 453 275.5 L 452 275.5 L 452.5 267 Z " /><path fill="rgb(106,76,72)" stroke="rgb(106,76,72)" stroke-width="1" opacity="0.5176470588235295" d="M 484.5 271 L 485 280.5 L 484 280.5 L 484.5 271 Z " /><path fill="rgb(106,76,72)" stroke="rgb(106,76,72)" stroke-width="1" opacity="0.5176470588235295" d="M 27.5 272 L 28 280.5 L 27 280.5 L 27.5 272 Z " /><path fill="rgb(106,76,72)" stroke="rgb(106,76,72)" stroke-width="1" opacity="0.5176470588235295" d="M 60.5 278 L 61 283.5 L 60 283.5 L 60.5 278 Z " /><path fill="rgb(106,76,72)" stroke="rgb(106,76,72)" stroke-width="1" opacity="0.5176470588235295" d="M 451.5 278 L 452 283.5 L 451 283.5 L 451.5 278 Z " /><path fill="rgb(106,76,72)" stroke="rgb(106,76,72)" stroke-width="1" opacity="0.5176470588235295" d="M 28.5 283 L 29 288.5 L 28 288.5 L 28.5 283 Z " /><path fill="rgb(106,76,72)" stroke="rgb(106,76,72)" stroke-width="1" opacity="0.5176470588235295" d="M 483.5 283 L 484 288.5 L 483 288.5 L 483.5 283 Z " /><path fill="rgb(106,76,72)" stroke="rgb(106,76,72)" stroke-width="1" opacity="0.5176470588235295" d="M 61.5 286 L 62 289.5 L 61 289.5 L 61.5 286 Z " /><path fill="rgb(106,76,72)" stroke="rgb(106,76,72)" stroke-width="1" opacity="0.5176470588235295" d="M 450.5 286 L 451 289.5 L 450 289.5 L 450.5 286 Z " /><path fill="rgb(106,76,72)" stroke="rgb(106,76,72)" stroke-width="1" opacity="0.5176470588235295" d="M 29.5 290 L 30 294.5 L 29 294.5 L 29.5 290 Z " /><path fill="rgb(106,76,72)" stroke="rgb(106,76,72)" stroke-width="1" opacity="0.5176470588235295" d="M 482.5 290 L 483 294.5 L 482 294.5 L 482.5 290 Z " /><path fill="rgb(106,76,72)" stroke="rgb(106,76,72)" stroke-width="1" opacity="0.5176470588235295" d="M 62.5 292 L 63 295.5 L 62 295.5 L 62.5 292 Z " /><path fill="rgb(106,76,72)" stroke="rgb(106,76,72)" stroke-width="1" opacity="0.5176470588235295" d="M 449.5 292 L 450 295.5 L 449 295.5 L 449.5 292 Z " /><path fill="rgb(106,76,72)" stroke="rgb(106,76,72)" stroke-width="1" opacity="0.5176470588235295" d="M 30.5 296 L 31 300.5 L 30 300.5 L 30.5 296 Z " /><path fill="rgb(106,76,72)" stroke="rgb(106,76,72)" stroke-width="1" opacity="0.5176470588235295" d="M 481.5 296 L 482 300.5 L 481 300.5 L 481.5 296 Z " /><path fill="rgb(106,76,72)" stroke="rgb(106,76,72)" stroke-width="1" opacity="0.5176470588235295" d="M 63.5 297 L 64 299.5 L 63 299.5 L 63.5 297 Z " /><path fill="rgb(106,76,72)" stroke="rgb(106,76,72)" stroke-width="1" opacity="0.5176470588235295" d="M 448.5 297 L 449 299.5 L 448 299.5 L 448.5 297 Z " /><path fill="rgb(106,76,72)" stroke="rgb(106,76,72)" stroke-width="1" opacity="0.5176470588235295" d="M 64.5 301 L 65 303.5 L 64 303.5 L 64.5 301 Z " /><path fill="rgb(106,76,72)" stroke="rgb(106,76,72)" stroke-width="1" opacity="0.5176470588235295" d="M 447.5 301 L 448 303.5 L 447 303.5 L 447.5 301 Z " /><path fill="rgb(106,76,72)" stroke="rgb(106,76,72)" stroke-width="1" opacity="0.5176470588235295" d="M 31.5 302 L 32 304.5 L 31 304.5 L 31.5 302 Z " /><path fill="rgb(106,76,72)" stroke="rgb(106,76,72)" stroke-width="1" opacity="0.5176470588235295" d="M 480.5 302 L 481 304.5 L 480 304.5 L 480.5 302 Z " /><path fill="rgb(106,76,72)" stroke="rgb(106,76,72)" stroke-width="1" opacity="0.5176470588235295" d="M 65.5 305 L 66 307.5 L 65 307.5 L 65.5 305 Z " /><path fill="rgb(106,76,72)" stroke="rgb(106,76,72)" stroke-width="1" opacity="0.5176470588235295" d="M 446.5 305 L 447 307.5 L 446 307.5 L 446.5 305 Z " /><path fill="rgb(106,76,72)" stroke="rgb(106,76,72)" stroke-width="1" opacity="0.5176470588235295" d="M 32.5 306 L 33 309.5 L 32 309.5 L 32.5 306 Z " /><path fill="rgb(106,76,72)" stroke="rgb(106,76,72)" stroke-width="1" opacity="0.5176470588235295" d="M 479.5 306 L 480 309.5 L 479 309.5 L 479.5 306 Z " /><path fill="rgb(106,76,72)" stroke="rgb(106,76,72)" stroke-width="1" opacity="0.5176470588235295" d="M 66.5 309 L 68 314.5 L 67 314.5 L 66.5 309 Z " /><path fill="rgb(106,76,72)" stroke="rgb(106,76,72)" stroke-width="1" opacity="0.5176470588235295" d="M 445.5 309 L 446 311.5 L 444.5 315 L 444 312.5 L 445.5 309 Z " /><path fill="rgb(106,76,72)" stroke="rgb(106,76,72)" stroke-width="1" opacity="0.5176470588235295" d="M 33.5 311 L 34 313.5 L 33 313.5 L 33.5 311 Z " /><path fill="rgb(106,76,72)" stroke="rgb(106,76,72)" stroke-width="1" opacity="0.5176470588235295" d="M 478.5 311 L 479 313.5 L 478 313.5 L 478.5 311 Z " /><path fill="rgb(106,76,72)" stroke="rgb(106,76,72)" stroke-width="1" opacity="0.5176470588235295" d="M 34.5 315 L 36 320.5 L 35 320.5 L 34.5 315 Z " /><path fill="rgb(106,76,72)" stroke="rgb(106,76,72)" stroke-width="1" opacity="0.5176470588235295" d="M 443.5 316 L 444 317.5 L 440.5 326 L 440 324.5 L 443.5 316 Z " /><path fill="rgb(106,76,72)" stroke="rgb(106,76,72)" stroke-width="1" opacity="0.5176470588235295" d="M 476.5 318 L 477 320.5 L 476 320.5 L 476.5 318 Z " /><path fill="rgb(106,76,72)" stroke="rgb(106,76,72)" stroke-width="1" opacity="0.5176470588235295" d="M 70.5 322 L 76 335.5 L 75 335.5 L 70.5 322 Z " /><path fill="rgb(106,76,72)" stroke="rgb(106,76,72)" stroke-width="1" opacity="0.5176470588235295" d="M 37.5 325 L 40 332.5 L 39 332.5 L 37.5 325 Z " /><path fill="rgb(106,76,72)" stroke="rgb(106,76,72)" stroke-width="1" opacity="0.5176470588235295" d="M 439.5 327 L 440 328.5 L 438.5 331 L 438 329.5 L 439.5 327 Z " /><path fill="rgb(106,76,72)" stroke="rgb(106,76,72)" stroke-width="1" opacity="0.5176470588235295" d="M 437.5 332 L 438 333.5 L 435.5 338 L 435 336.5 L 437.5 332 Z " /><path fill="rgb(106,76,72)" stroke="rgb(106,76,72)" stroke-width="1" opacity="0.5176470588235295" d="M 471.5 334 L 472 335.5 L 469.5 341 L 469 339.5 L 471.5 334 Z " /><path fill="rgb(106,76,72)" stroke="rgb(106,76,72)" stroke-width="1" opacity="0.5176470588235295" d="M 41.5 337 L 43 340.5 L 42 340.5 L 41.5 337 Z " /><path fill="rgb(106,76,72)" stroke="rgb(106,76,72)" stroke-width="1" opacity="0.5176470588235295" d="M 76.5 337 L 83 349.5 L 81 348.5 L 76 338.5 L 76.5 337 Z " /><path fill="rgb(106,76,72)" stroke="rgb(106,76,72)" stroke-width="1" opacity="0.5176470588235295" d="M 433.5 341 L 434 342.5 L 432 343.5 L 433.5 341 Z " /><path fill="rgb(106,76,72)" stroke="rgb(106,76,72)" stroke-width="1" opacity="0.5176470588235295" d="M 43.5 342 L 45 345.5 L 44 345.5 L 43.5 342 Z " /><path fill="rgb(106,76,72)" stroke="rgb(106,76,72)" stroke-width="1" opacity="0.5176470588235295" d="M 468.5 342 L 469 343.5 L 466.5 348 L 466 346.5 L 468.5 342 Z " /><path fill="rgb(106,76,72)" stroke="rgb(106,76,72)" stroke-width="1" opacity="0.5176470588235295" d="M 45.5 347 L 57 369.5 L 55 368.5 L 45 348.5 L 45.5 347 Z " /><path fill="rgb(106,76,72)" stroke="rgb(106,76,72)" stroke-width="1" opacity="0.5176470588235295" d="M 429.5 349 L 429 350.5 L 423.5 360 L 424 358.5 L 429.5 349 Z " /><path fill="rgb(106,76,72)" stroke="rgb(106,76,72)" stroke-width="1" opacity="0.5176470588235295" d="M 465.5 349 L 466 350.5 L 452.5 375 L 453 373.5 L 465.5 349 Z " /><path fill="rgb(106,76,72)" stroke="rgb(106,76,72)" stroke-width="1" opacity="0.5176470588235295" d="M 83.5 351 L 87 358.5 L 86 358.5 L 83.5 351 Z " /><path fill="rgb(106,76,72)" stroke="rgb(106,76,72)" stroke-width="1" opacity="0.5176470588235295" d="M 87.5 360 L 88 364.5 L 87 364.5 L 87.5 360 Z " /><path fill="rgb(106,76,72)" stroke="rgb(106,76,72)" stroke-width="1" opacity="0.5176470588235295" d="M 422.5 361 L 422 362.5 Q 409.3 383.8 391.5 400 L 370.5 417 L 372.5 414 L 396 395 L 414 373.5 L 422.5 361 Z " /><path fill="rgb(106,76,72)" stroke="rgb(106,76,72)" stroke-width="1" opacity="0.5176470588235295" d="M 86.5 366 L 87 368.5 L 81.5 376 Q 77 380.5 66.5 379 L 57 371.5 L 62.5 376 Q 66.5 379.5 75.5 378 L 84 372.5 L 86.5 366 Z " /><path fill="rgb(106,76,72)" stroke="rgb(106,76,72)" stroke-width="1" opacity="0.5176470588235295" d="M 451.5 376 L 451 377.5 Q 435.7 403.2 414.5 423 Q 397.5 439.5 376.5 452 L 377.5 450 Q 407.8 431.8 430 405.5 L 451.5 376 Z " /><path fill="rgb(106,76,72)" stroke="rgb(106,76,72)" stroke-width="1" opacity="0.5176470588235295" d="M 368.5 417 L 366.5 420 L 361.5 423 L 362.5 421 L 368.5 417 Z " /><path fill="rgb(106,76,72)" stroke="rgb(106,76,72)" stroke-width="1" opacity="0.5176470588235295" d="M 359.5 423 L 358.5 425 L 349.5 430 L 350.5 428 L 359.5 423 Z " /><path fill="rgb(106,76,72)" stroke="rgb(106,76,72)" stroke-width="1" opacity="0.5176470588235295" d="M 147.5 424 L 152 424.5 L 147.5 425 L 147.5 424 Z " /><path fill="rgb(106,76,72)" stroke="rgb(106,76,72)" stroke-width="1" opacity="0.5176470588235295" d="M 143.5 425 L 146 425.5 Q 139.9 426.4 137 430.5 L 134.5 435 L 134 433.5 L 139.5 427 L 143.5 425 Z " /><path fill="rgb(106,76,72)" stroke="rgb(106,76,72)" stroke-width="1" opacity="0.5176470588235295" d="M 153.5 425 L 161 428.5 L 159.5 428 L 153.5 426 L 153.5 425 Z " /><path fill="rgb(106,76,72)" stroke="rgb(106,76,72)" stroke-width="1" opacity="0.5176470588235295" d="M 162.5 429 L 175 435.5 L 173.5 436 L 163.5 431 L 162.5 429 Z " /><path fill="rgb(106,76,72)" stroke="rgb(106,76,72)" stroke-width="1" opacity="0.5176470588235295" d="M 343.5 432 L 342.5 434 L 341 433.5 L 343.5 432 Z " /><path fill="rgb(106,76,72)" stroke="rgb(106,76,72)" stroke-width="1" opacity="0.5176470588235295" d="M 336.5 435 L 338 435.5 L 332.5 438 L 332.5 437 L 336.5 435 Z " /><path fill="rgb(106,76,72)" stroke="rgb(106,76,72)" stroke-width="1" opacity="0.5176470588235295" d="M 133.5 436 Q 132.2 450.3 141 454.5 L 135 449.5 Q 131.2 445 133.5 436 Z " /><path fill="rgb(106,76,72)" stroke="rgb(106,76,72)" stroke-width="1" opacity="0.5176470588235295" d="M 176.5 436 L 182 438.5 L 180.5 439 L 176.5 437 L 176.5 436 Z " /><path fill="rgb(106,76,72)" stroke="rgb(106,76,72)" stroke-width="1" opacity="0.5176470588235295" d="M 329.5 438 L 331 438.5 L 327.5 440 L 327.5 439 L 329.5 438 Z " /><path fill="rgb(106,76,72)" stroke="rgb(106,76,72)" stroke-width="1" opacity="0.5176470588235295" d="M 183.5 439 L 190 441.5 L 188.5 442 L 183.5 440 L 183.5 439 Z " /><path fill="rgb(106,76,72)" stroke="rgb(106,76,72)" stroke-width="1" opacity="0.5176470588235295" d="M 324.5 440 L 326 440.5 L 316.5 444 L 316.5 443 L 324.5 440 Z " /><path fill="rgb(106,76,72)" stroke="rgb(106,76,72)" stroke-width="1" opacity="0.5176470588235295" d="M 197.5 444 L 203 445.5 L 200.5 446 L 197.5 445 L 197.5 444 Z " /><path fill="rgb(106,76,72)" stroke="rgb(106,76,72)" stroke-width="1" opacity="0.5176470588235295" d="M 312.5 444 L 315 444.5 L 309.5 446 L 309.5 445 L 312.5 444 Z " /><path fill="rgb(106,76,72)" stroke="rgb(106,76,72)" stroke-width="1" opacity="0.5176470588235295" d="M 204.5 446 L 207 446.5 L 204.5 447 L 204.5 446 Z " /><path fill="rgb(106,76,72)" stroke="rgb(106,76,72)" stroke-width="1" opacity="0.5176470588235295" d="M 305.5 446 L 308 446.5 L 305.5 447 L 305.5 446 Z " /><path fill="rgb(106,76,72)" stroke="rgb(106,76,72)" stroke-width="1" opacity="0.5176470588235295" d="M 208.5 447 L 211 447.5 L 208.5 448 L 208.5 447 Z " /><path fill="rgb(106,76,72)" stroke="rgb(106,76,72)" stroke-width="1" opacity="0.5176470588235295" d="M 301.5 447 L 304 447.5 L 301.5 448 L 301.5 447 Z " /><path fill="rgb(106,76,72)" stroke="rgb(106,76,72)" stroke-width="1" opacity="0.5176470588235295" d="M 212.5 448 L 215 448.5 L 212.5 449 L 212.5 448 Z " /><path fill="rgb(106,76,72)" stroke="rgb(106,76,72)" stroke-width="1" opacity="0.5176470588235295" d="M 297.5 448 L 300 448.5 L 297.5 449 L 297.5 448 Z " /><path fill="rgb(106,76,72)" stroke="rgb(106,76,72)" stroke-width="1" opacity="0.5176470588235295" d="M 216.5 449 L 220 449.5 L 216.5 450 L 216.5 449 Z " /><path fill="rgb(106,76,72)" stroke="rgb(106,76,72)" stroke-width="1" opacity="0.5176470588235295" d="M 292.5 449 L 296 449.5 L 292.5 450 L 292.5 449 Z " /><path fill="rgb(106,76,72)" stroke="rgb(106,76,72)" stroke-width="1" opacity="0.5176470588235295" d="M 222.5 450 L 226 450.5 L 222.5 451 L 222.5 450 Z " /><path fill="rgb(106,76,72)" stroke="rgb(106,76,72)" stroke-width="1" opacity="0.5176470588235295" d="M 286.5 450 L 290 450.5 L 286.5 451 L 286.5 450 Z " /><path fill="rgb(106,76,72)" stroke="rgb(106,76,72)" stroke-width="1" opacity="0.5176470588235295" d="M 228.5 451 L 234 451.5 L 228.5 452 L 228.5 451 Z " /><path fill="rgb(106,76,72)" stroke="rgb(106,76,72)" stroke-width="1" opacity="0.5176470588235295" d="M 278.5 451 L 284 451.5 L 278.5 452 L 278.5 451 Z " /><path fill="rgb(106,76,72)" stroke="rgb(106,76,72)" stroke-width="1" opacity="0.5176470588235295" d="M 236.5 452 L 245 452.5 L 236.5 453 L 236.5 452 Z " /><path fill="rgb(106,76,72)" stroke="rgb(106,76,72)" stroke-width="1" opacity="0.5176470588235295" d="M 267.5 452 L 276 452.5 L 267.5 453 L 267.5 452 Z " /><path fill="rgb(106,76,72)" stroke="rgb(106,76,72)" stroke-width="1" opacity="0.5176470588235295" d="M 374.5 452 L 373.5 454 L 349.5 466 L 349.5 465 L 374.5 452 Z " /><path fill="rgb(106,76,72)" stroke="rgb(106,76,72)" stroke-width="1" opacity="0.5176470588235295" d="M 252.5 453 L 259 453.5 L 252.5 454 L 252.5 453 Z " /><path fill="rgb(106,76,72)" stroke="rgb(106,76,72)" stroke-width="1" opacity="0.5176470588235295" d="M 142.5 455 L 170 468.5 L 168.5 469 L 143.5 457 L 142.5 455 Z " /><path fill="rgb(106,76,72)" stroke="rgb(106,76,72)" stroke-width="1" opacity="0.5176470588235295" d="M 344.5 467 L 346 467.5 L 342.5 469 L 342.5 468 L 344.5 467 Z " /><path fill="rgb(106,76,72)" stroke="rgb(106,76,72)" stroke-width="1" opacity="0.5176470588235295" d="M 171.5 469 L 175 470.5 L 173.5 471 L 171.5 469 Z " /><path fill="rgb(106,76,72)" stroke="rgb(106,76,72)" stroke-width="1" opacity="0.5176470588235295" d="M 339.5 469 L 341 469.5 L 337.5 471 L 337.5 470 L 339.5 469 Z " /><path fill="rgb(106,76,72)" stroke="rgb(106,76,72)" stroke-width="1" opacity="0.5176470588235295" d="M 334.5 471 L 336 471.5 L 322.5 476 L 322.5 475 L 334.5 471 Z " /><path fill="rgb(106,76,72)" stroke="rgb(106,76,72)" stroke-width="1" opacity="0.5176470588235295" d="M 179.5 472 L 187 474.5 L 184.5 475 L 179.5 473 L 179.5 472 Z " /><path fill="rgb(106,76,72)" stroke="rgb(106,76,72)" stroke-width="1" opacity="0.5176470588235295" d="M 191.5 476 L 197 477.5 L 194.5 478 L 191.5 477 L 191.5 476 Z " /><path fill="rgb(106,76,72)" stroke="rgb(106,76,72)" stroke-width="1" opacity="0.5176470588235295" d="M 318.5 476 L 321 476.5 L 315.5 478 L 315.5 477 L 318.5 476 Z " /><path fill="rgb(106,76,72)" stroke="rgb(106,76,72)" stroke-width="1" opacity="0.5176470588235295" d="M 198.5 478 L 201 478.5 L 198.5 479 L 198.5 478 Z " /><path fill="rgb(106,76,72)" stroke="rgb(106,76,72)" stroke-width="1" opacity="0.5176470588235295" d="M 311.5 478 L 314 478.5 L 311.5 479 L 311.5 478 Z " /><path fill="rgb(106,76,72)" stroke="rgb(106,76,72)" stroke-width="1" opacity="0.5176470588235295" d="M 202.5 479 L 210 480.5 L 206.5 481 L 202.5 480 L 202.5 479 Z " /><path fill="rgb(106,76,72)" stroke="rgb(106,76,72)" stroke-width="1" opacity="0.5176470588235295" d="M 307.5 479 L 310 479.5 L 307.5 480 L 307.5 479 Z " /><path fill="rgb(106,76,72)" stroke="rgb(106,76,72)" stroke-width="1" opacity="0.5176470588235295" d="M 302.5 480 L 306 480.5 L 302.5 481 L 302.5 480 Z " /><path fill="rgb(106,76,72)" stroke="rgb(106,76,72)" stroke-width="1" opacity="0.5176470588235295" d="M 211.5 481 L 216 481.5 L 211.5 482 L 211.5 481 Z " /><path fill="rgb(106,76,72)" stroke="rgb(106,76,72)" stroke-width="1" opacity="0.5176470588235295" d="M 297.5 481 L 301 481.5 L 297.5 482 L 297.5 481 Z " /><path fill="rgb(106,76,72)" stroke="rgb(106,76,72)" stroke-width="1" opacity="0.5176470588235295" d="M 217.5 482 L 222 482.5 L 217.5 483 L 217.5 482 Z " /><path fill="rgb(106,76,72)" stroke="rgb(106,76,72)" stroke-width="1" opacity="0.5176470588235295" d="M 291.5 482 L 295 482.5 L 291.5 483 L 291.5 482 Z " /><path fill="rgb(106,76,72)" stroke="rgb(106,76,72)" stroke-width="1" opacity="0.5176470588235295" d="M 223.5 483 L 229 483.5 L 223.5 484 L 223.5 483 Z " /><path fill="rgb(106,76,72)" stroke="rgb(106,76,72)" stroke-width="1" opacity="0.5176470588235295" d="M 283.5 483 L 289 483.5 L 283.5 484 L 283.5 483 Z " /><path fill="rgb(106,76,72)" stroke="rgb(106,76,72)" stroke-width="1" opacity="0.5176470588235295" d="M 231.5 484 L 239 484.5 L 231.5 485 L 231.5 484 Z " /><path fill="rgb(106,76,72)" stroke="rgb(106,76,72)" stroke-width="1" opacity="0.5176470588235295" d="M 272.5 484 L 281 484.5 L 272.5 485 L 272.5 484 Z " /><path fill="rgb(106,76,72)" stroke="rgb(106,76,72)" stroke-width="1" opacity="0.5176470588235295" d="M 244.5 485 L 269 485.5 L 244.5 486 L 244.5 485 Z " /><path fill="rgb(100,75,67)" stroke="rgb(100,75,67)" stroke-width="1" opacity="0.996078431372549" d="M 240.5 27 L 243 27.5 L 240.5 28 L 240.5 27 Z " /><path fill="rgb(100,75,67)" stroke="rgb(100,75,67)" stroke-width="1" opacity="0.996078431372549" d="M 264.5 29 L 265.5 31 L 264.5 29 Z " /><path fill="rgb(100,75,67)" stroke="rgb(100,75,67)" stroke-width="1" opacity="0.996078431372549" d="M 478.5 29 L 479.5 31 L 478.5 29 Z " /><path fill="rgb(100,75,67)" stroke="rgb(100,75,67)" stroke-width="1" opacity="0.996078431372549" d="M 344.5 31 L 342.5 34 L 344.5 31 Z " /><path fill="rgb(100,75,67)" stroke="rgb(100,75,67)" stroke-width="1" opacity="0.996078431372549" d="M 264.5 55 L 263.5 57 L 264.5 55 Z " /><path fill="rgb(100,75,67)" stroke="rgb(100,75,67)" stroke-width="1" opacity="0.996078431372549" d="M 248.5 58 L 251 58.5 L 248.5 59 L 248.5 58 Z " /><path fill="rgb(100,75,67)" stroke="rgb(100,75,67)" stroke-width="1" opacity="0.996078431372549" d="M 136.5 60 L 135.5 62 L 136.5 60 Z " /><path fill="rgb(100,75,67)" stroke="rgb(100,75,67)" stroke-width="1" opacity="0.996078431372549" d="M 133.5 62 L 132.5 64 L 133.5 62 Z " /><path fill="rgb(100,75,67)" stroke="rgb(100,75,67)" stroke-width="1" opacity="0.996078431372549" d="M 124.5 68 L 123.5 70 L 124.5 68 Z " /><path fill="rgb(100,75,67)" stroke="rgb(100,75,67)" stroke-width="1" opacity="0.996078431372549" d="M 414.5 75 L 412.5 78 L 414.5 75 Z " /><path fill="rgb(100,75,67)" stroke="rgb(100,75,67)" stroke-width="1" opacity="0.996078431372549" d="M 111.5 78 L 110.5 80 L 111.5 78 Z " /><path fill="rgb(100,75,67)" stroke="rgb(100,75,67)" stroke-width="1" opacity="0.996078431372549" d="M 410.5 79 L 264.5 226 L 410.5 79 Z " /><path fill="rgb(100,75,67)" stroke="rgb(100,75,67)" stroke-width="1" opacity="0.996078431372549" d="M 452.5 81 L 454 81.5 L 286.5 248 L 452.5 81 Z " /><path fill="rgb(100,75,67)" stroke="rgb(100,75,67)" stroke-width="1" opacity="0.996078431372549" d="M 157.5 84 L 156.5 86 L 157.5 84 Z " /><path fill="rgb(100,75,67)" stroke="rgb(100,75,67)" stroke-width="1" opacity="0.996078431372549" d="M 143.5 93 L 142.5 95 L 143.5 93 Z " /><path fill="rgb(100,75,67)" stroke="rgb(100,75,67)" stroke-width="1" opacity="0.996078431372549" d="M 140.5 95 L 139.5 97 L 140.5 95 Z " /><path fill="rgb(100,75,67)" stroke="rgb(100,75,67)" stroke-width="1" opacity="0.996078431372549" d="M 135.5 99 L 134.5 101 L 135.5 99 Z " /><path fill="rgb(100,75,67)" stroke="rgb(100,75,67)" stroke-width="1" opacity="0.996078431372549" d="M 86.5 102 L 82.5 107 L 86.5 102 Z " /><path fill="rgb(100,75,67)" stroke="rgb(100,75,67)" stroke-width="1" opacity="0.996078431372549" d="M 131.5 102 L 129.5 105 L 131.5 102 Z " /><path fill="rgb(100,75,67)" stroke="rgb(100,75,67)" stroke-width="1" opacity="0.996078431372549" d="M 125.5 107 L 120.5 113 L 125.5 107 Z " /><path fill="rgb(100,75,67)" stroke="rgb(100,75,67)" stroke-width="1" opacity="0.996078431372549" d="M 79.5 110 L 77.5 113 L 79.5 110 Z " /><path fill="rgb(100,75,67)" stroke="rgb(100,75,67)" stroke-width="1" opacity="0.996078431372549" d="M 113.5 119 L 107.5 126 L 113.5 119 Z " /><path fill="rgb(100,75,67)" stroke="rgb(100,75,67)" stroke-width="1" opacity="0.996078431372549" d="M 69.5 123 L 68.5 125 L 69.5 123 Z " /><path fill="rgb(100,75,67)" stroke="rgb(100,75,67)" stroke-width="1" opacity="0.996078431372549" d="M 67.5 126 L 66.5 128 L 67.5 126 Z " /><path fill="rgb(100,75,67)" stroke="rgb(100,75,67)" stroke-width="1" opacity="0.996078431372549" d="M 103.5 130 L 102.5 132 L 103.5 130 Z " /><path fill="rgb(100,75,67)" stroke="rgb(100,75,67)" stroke-width="1" opacity="0.996078431372549" d="M 63.5 132 L 62.5 134 L 63.5 132 Z " /><path fill="rgb(100,75,67)" stroke="rgb(100,75,67)" stroke-width="1" opacity="0.996078431372549" d="M 96.5 139 L 95.5 141 L 96.5 139 Z " /><path fill="rgb(100,75,67)" stroke="rgb(100,75,67)" stroke-width="1" opacity="0.996078431372549" d="M 94.5 142 L 93.5 144 L 94.5 142 Z " /><path fill="rgb(100,75,67)" stroke="rgb(100,75,67)" stroke-width="1" opacity="0.996078431372549" d="M 88.5 151 L 87.5 153 L 88.5 151 Z " /><path fill="rgb(100,75,67)" stroke="rgb(100,75,67)" stroke-width="1" opacity="0.996078431372549" d="M 456.5 165 L 457.5 167 L 456.5 165 Z " /><path fill="rgb(100,75,67)" stroke="rgb(100,75,67)" stroke-width="1" opacity="0.996078431372549" d="M 481.5 166 L 479.5 169 L 481.5 166 Z " /><path fill="rgb(100,75,67)" stroke="rgb(100,75,67)" stroke-width="1" opacity="0.996078431372549" d="M 459.5 168 L 460.5 170 L 459.5 168 Z " /><path fill="rgb(100,75,67)" stroke="rgb(100,75,67)" stroke-width="1" opacity="0.996078431372549" d="M 466.5 240 L 469 240.5 L 466.5 241 L 466.5 240 Z " /><path fill="rgb(100,75,67)" stroke="rgb(100,75,67)" stroke-width="1" opacity="0.996078431372549" d="M 478.5 243 L 482.5 248 L 478.5 243 Z " /><path fill="rgb(100,75,67)" stroke="rgb(100,75,67)" stroke-width="1" opacity="0.996078431372549" d="M 58.5 246 L 59 248.5 L 58 248.5 L 58.5 246 Z " /><path fill="rgb(100,75,67)" stroke="rgb(100,75,67)" stroke-width="1" opacity="0.996078431372549" d="M 58.5 250 L 59 252.5 L 58 252.5 L 58.5 250 Z " /><path fill="rgb(100,75,67)" stroke="rgb(100,75,67)" stroke-width="1" opacity="0.996078431372549" d="M 453.5 258 L 454 266.5 L 453 266.5 L 453.5 258 Z " /><path fill="rgb(100,75,67)" stroke="rgb(100,75,67)" stroke-width="1" opacity="0.996078431372549" d="M 58.5 259 L 59 263.5 L 58 263.5 L 58.5 259 Z " /><path fill="rgb(100,75,67)" stroke="rgb(100,75,67)" stroke-width="1" opacity="0.996078431372549" d="M 27.5 267 L 28 270.5 L 27 270.5 L 27.5 267 Z " /><path fill="rgb(100,75,67)" stroke="rgb(100,75,67)" stroke-width="1" opacity="0.996078431372549" d="M 452.5 276 L 453 278.5 L 452 278.5 L 452.5 276 Z " /><path fill="rgb(100,75,67)" stroke="rgb(100,75,67)" stroke-width="1" opacity="0.996078431372549" d="M 483.5 280 L 484 282.5 L 483 282.5 L 483.5 280 Z " /><path fill="rgb(100,75,67)" stroke="rgb(100,75,67)" stroke-width="1" opacity="0.996078431372549" d="M 418.5 368 L 417.5 370 L 418.5 368 Z " /><path fill="rgb(100,75,67)" stroke="rgb(100,75,67)" stroke-width="1" opacity="0.996078431372549" d="M 57.5 370 L 58.5 372 L 57.5 370 Z " /><path fill="rgb(100,75,67)" stroke="rgb(100,75,67)" stroke-width="1" opacity="0.996078431372549" d="M 416.5 371 L 415.5 373 L 416.5 371 Z " /><path fill="rgb(100,75,67)" stroke="rgb(100,75,67)" stroke-width="1" opacity="0.996078431372549" d="M 82.5 373 L 81.5 375 L 82.5 373 Z " /><path fill="rgb(100,75,67)" stroke="rgb(100,75,67)" stroke-width="1" opacity="0.996078431372549" d="M 451.5 375 L 450.5 377 L 451.5 375 Z " /><path fill="rgb(100,75,67)" stroke="rgb(100,75,67)" stroke-width="1" opacity="0.996078431372549" d="M 449.5 378 L 448.5 380 L 449.5 378 Z " /><path fill="rgb(100,75,67)" stroke="rgb(100,75,67)" stroke-width="1" opacity="0.996078431372549" d="M 410.5 379 L 408.5 382 L 410.5 379 Z " /><path fill="rgb(100,75,67)" stroke="rgb(100,75,67)" stroke-width="1" opacity="0.996078431372549" d="M 403.5 387 L 400.5 391 L 403.5 387 Z " /><path fill="rgb(100,75,67)" stroke="rgb(100,75,67)" stroke-width="1" opacity="0.996078431372549" d="M 443.5 387 L 442.5 389 L 443.5 387 Z " /><path fill="rgb(100,75,67)" stroke="rgb(100,75,67)" stroke-width="1" opacity="0.996078431372549" d="M 390.5 400 L 385.5 406 L 390.5 400 Z " /><path fill="rgb(100,75,67)" stroke="rgb(100,75,67)" stroke-width="1" opacity="0.996078431372549" d="M 433.5 400 L 432.5 402 L 433.5 400 Z " /><path fill="rgb(100,75,67)" stroke="rgb(100,75,67)" stroke-width="1" opacity="0.996078431372549" d="M 429.5 405 L 426.5 409 L 429.5 405 Z " /><path fill="rgb(100,75,67)" stroke="rgb(100,75,67)" stroke-width="1" opacity="0.996078431372549" d="M 381.5 408 L 380.5 410 L 381.5 408 Z " /><path fill="rgb(100,75,67)" stroke="rgb(100,75,67)" stroke-width="1" opacity="0.996078431372549" d="M 407.5 427 L 405.5 430 L 407.5 427 Z " /><path fill="rgb(100,75,67)" stroke="rgb(100,75,67)" stroke-width="1" opacity="0.996078431372549" d="M 139.5 428 L 137.5 431 L 139.5 428 Z " /><path fill="rgb(100,75,67)" stroke="rgb(100,75,67)" stroke-width="1" opacity="0.996078431372549" d="M 401.5 432 L 400.5 434 L 401.5 432 Z " /><path fill="rgb(100,75,67)" stroke="rgb(100,75,67)" stroke-width="1" opacity="0.996078431372549" d="M 388.5 442 L 387.5 444 L 388.5 442 Z " /><path fill="rgb(100,75,67)" stroke="rgb(100,75,67)" stroke-width="1" opacity="0.996078431372549" d="M 385.5 444 L 384.5 446 L 385.5 444 Z " /><path fill="rgb(100,75,67)" stroke="rgb(100,75,67)" stroke-width="1" opacity="0.996078431372549" d="M 379.5 448 L 378.5 450 L 379.5 448 Z " /><path fill="rgb(100,75,67)" stroke="rgb(100,75,67)" stroke-width="1" opacity="0.996078431372549" d="M 376.5 450 L 375.5 452 L 376.5 450 Z " /><path fill="rgb(100,75,67)" stroke="rgb(100,75,67)" stroke-width="1" opacity="0.996078431372549" d="M 233.5 452 L 236 452.5 L 233.5 453 L 233.5 452 Z " /><path fill="rgb(100,75,67)" stroke="rgb(100,75,67)" stroke-width="1" opacity="0.996078431372549" d="M 140.5 453 L 141.5 455 L 140.5 453 Z " /><path fill="rgb(100,75,67)" stroke="rgb(100,75,67)" stroke-width="1" opacity="0.996078431372549" d="M 246.5 453 L 252 453.5 L 246.5 454 L 246.5 453 Z " /><path fill="rgb(100,75,67)" stroke="rgb(100,75,67)" stroke-width="1" opacity="0.996078431372549" d="M 259.5 453 L 262 453.5 L 259.5 454 L 259.5 453 Z " /><path fill="rgb(100,75,67)" stroke="rgb(100,75,67)" stroke-width="1" opacity="0.996078431372549" d="M 264.5 453 L 267 453.5 L 264.5 454 L 264.5 453 Z " /><path fill="rgb(100,75,67)" stroke="rgb(100,75,67)" stroke-width="1" opacity="0.996078431372549" d="M 240.5 484 L 243 484.5 L 240.5 485 L 240.5 484 Z " /><path fill="rgb(100,75,67)" stroke="rgb(100,75,67)" stroke-width="1" opacity="0.996078431372549" d="M 269.5 484 L 272 484.5 L 269.5 485 L 269.5 484 Z " /><path fill="rgb(101,76,68)" stroke="rgb(101,76,68)" stroke-width="1" opacity="1" d="M 243.5 27 L 259.5 27 L 269 33.5 L 272 43.5 Q 270.8 51.3 265.5 55 L 259.5 58 L 248.5 58 L 246.5 59 L 244.5 59 L 234.5 59 L 226.5 61 L 224.5 61 L 206.5 64 L 177.5 74 Q 144 88.5 120 112.5 Q 120.8 114.8 118.5 114 L 107 125.5 L 105 130 L 102 131.5 Q 85.2 151.7 74 177.5 L 64 206.5 L 59 234.5 L 59 236.5 L 58 248.5 L 58 250.5 L 59 253.5 L 58 254.5 L 58 263.5 L 58 265.5 L 60 277.5 L 60 279.5 L 61 291.5 L 65 304.5 L 66 312.5 L 77 341.5 L 84 352.5 L 87 363.5 L 84 373 L 74.5 378 L 67.5 378 L 59 372.5 L 45 346.5 L 45 343.5 L 40 333.5 L 36 317.5 L 34 314.5 L 34 312.5 L 33 310.5 L 33 308.5 L 28 281.5 L 28 279.5 Q 29.7 273.3 27 271.5 L 28 267.5 L 27 266.5 L 27 244.5 L 28 241.5 Q 26.5 234 29 230.5 L 29 228.5 L 30 223.5 L 30 221.5 L 31 211.5 L 37 191.5 L 37 187.5 L 45 166.5 L 58 140.5 L 74 116 Q 76.7 117.1 76 114.5 L 103.5 85 L 106.5 83 L 112 78.5 Q 111.3 76.3 113.5 77 L 116 76 Q 114.9 73.3 117.5 74 L 127 68 Q 125.9 65.3 128.5 66 L 147.5 54 L 165.5 45 L 168.5 45 L 176.5 41 L 210.5 31 L 212.5 31 L 230.5 29 L 231.5 28 L 242.5 28 L 243.5 27 Z " /><path fill="rgb(101,76,68)" stroke="rgb(101,76,68)" stroke-width="1" opacity="1" d="M 352.5 27 L 472.5 27 L 481 31 L 485 40.5 L 485 159.5 Q 483.2 166.7 477.5 170 Q 473.8 173.3 465.5 172 L 458 168 L 454 160.5 L 454 81 L 452.5 81 L 285.5 248 Q 282.3 251.8 273.5 250 L 265 244.5 Q 260.7 240.3 262 230.5 L 264 226.5 L 411 79.5 L 411 78 L 415 75.5 L 420.5 69 L 422 69 L 422 67 Q 424.7 68.1 424 65.5 L 427 64 L 427 62 Q 429.7 63.1 429 60.5 L 430.5 58 L 351.5 58 L 343 52.5 L 340 46.5 L 340 38.5 L 345 30 L 352.5 27 Z " /><path fill="rgb(101,76,68)" stroke="rgb(101,76,68)" stroke-width="1" opacity="1" d="M 469.5 240 L 476.5 242 L 483 248.5 Q 487 255 485 267.5 L 484 270.5 L 484 279.5 L 483 280.5 L 483 287.5 L 482 288.5 L 480 305.5 Q 476.8 309.8 477 317.5 L 475 320.5 L 475 322.5 L 465 350.5 L 446 385 Q 443.3 383.9 444 386.5 L 435 400 L 432 401.5 Q 422 416 408.5 427 L 400 433.5 Q 400.8 435.8 398.5 435 L 396 436 Q 397.1 438.7 394.5 438 Q 363.6 463.1 320.5 476 L 300.5 481 L 281.5 483 L 280.5 484 L 243.5 485 L 240.5 484 L 238.5 484 L 217.5 482 L 178.5 472 L 153.5 461 L 137 450.5 Q 132.8 446.7 134 437.5 L 135 434.5 L 140.5 428 L 147.5 425 L 152.5 425 L 179.5 439 L 202.5 447 L 233.5 453 L 261.5 454 L 263.5 453 L 266.5 454 L 276.5 452 L 278.5 453 L 279.5 452 L 291.5 451 L 296.5 449 L 301.5 449 L 324.5 442 L 354.5 428 L 369 419 L 369 417 L 372 417 Q 370.9 414.3 373.5 415 L 376 414 Q 374.9 411.3 377.5 412 L 399 392.5 Q 398.3 390.3 400.5 391 L 404 386 Q 406.7 387.1 406 384.5 Q 411.2 381.7 412 376 Q 414.7 377.1 414 374.5 L 428 354.5 L 438 334.5 L 448 305.5 L 448 303.5 L 453 278.5 L 454 252.5 L 458 244 L 463.5 241 Q 468.2 242.3 469.5 240 Z " /></svg>