<svg width="59" height="33" viewBox="0 0 59 33" fill="none" xmlns="http://www.w3.org/2000/svg">
<path d="M3.71219 3.08623C3.07418 3.08623 2.56427 3.76188 2.56053 4.6011L2.50004 18.1636C2.49454 19.0028 3.01375 19.6843 3.65167 19.6783L14.5589 19.5768C15.5106 20.1843 14.1801 24.1152 10.6989 25.6295C7.74289 26.9154 10.5639 29.4789 10.4202 29.9136C15.277 28.9134 17.09 27.3343 18.3452 26.5738C20.3395 25.2058 23.4472 21.6331 24.2228 18.9743C24.3369 18.7391 24.3061 18.4644 24.3075 18.1635L24.368 4.60106C24.3735 3.76184 23.8543 3.08618 23.2162 3.08618L3.71219 3.08623Z" fill="#654C44" stroke="#654C44" stroke-width="5" stroke-linecap="round" stroke-linejoin="round"/>
<path d="M35.5802 3.08623C34.9422 3.08623 34.4323 3.76188 34.4286 4.6011L34.3681 18.1636C34.3626 19.0028 34.8818 19.6843 35.5197 19.6783L46.427 19.5768C47.3787 20.1843 46.0481 24.1152 42.5669 25.6295C39.6109 26.9154 42.4319 29.4789 42.2882 29.9136C47.1451 28.9134 48.958 27.3343 50.2132 26.5738C52.2076 25.2058 55.3153 21.6331 56.0909 18.9743C56.205 18.7391 56.1742 18.4644 56.1755 18.1635L56.236 4.60106C56.2415 3.76184 55.7224 3.08618 55.0843 3.08618L35.5802 3.08623Z" fill="#654C44" stroke="#654C44" stroke-width="5" stroke-linecap="round" stroke-linejoin="round"/>
</svg>
