<svg width="20" height="20" viewBox="0 0 20 20" fill="none" xmlns="http://www.w3.org/2000/svg">
<path d="M11.5031 20H8.49935C8.31499 20 8.13714 19.9319 8.00007 19.8086C7.863 19.6853 7.77641 19.5157 7.75699 19.3323L7.53458 17.2383C7.2241 17.1327 6.92078 17.007 6.62653 16.8622L4.99005 18.1856C4.84682 18.3009 4.66604 18.3593 4.48239 18.3496C4.29875 18.3399 4.12516 18.2627 3.99492 18.1328L1.87083 16.009C1.74098 15.8787 1.66379 15.7052 1.65405 15.5215C1.64432 15.3379 1.70273 15.1571 1.81809 15.0139L3.1421 13.3756C2.99701 13.0814 2.87119 12.7782 2.76545 12.4677L0.667728 12.2438C0.484478 12.2244 0.314888 12.1379 0.191609 12.0009C0.0683306 11.864 8.05246e-05 11.6862 0 11.502V8.49801C8.05246e-05 8.31375 0.0683306 8.13604 0.191609 7.99909C0.314888 7.86214 0.484478 7.77563 0.667728 7.75622L2.76197 7.53383C2.86771 7.22334 2.99353 6.92004 3.13862 6.62587L1.81461 4.98756C1.69925 4.84435 1.64084 4.66359 1.65057 4.47996C1.6603 4.29633 1.7375 4.12276 1.86735 3.99254L3.99144 1.86866C4.12167 1.73882 4.29526 1.66163 4.47891 1.6519C4.66256 1.64217 4.84334 1.70058 4.98656 1.81592L6.62504 3.1393C6.91929 2.99447 7.22261 2.86884 7.53309 2.76319L7.7555 0.669156C7.7746 0.485313 7.86125 0.3151 7.99867 0.191479C8.13609 0.0678587 8.3145 -0.000371776 8.49935 1.52371e-06H11.5031C11.6875 -4.08184e-05 11.8653 0.0681471 12.0024 0.191425C12.1395 0.314703 12.2261 0.484346 12.2455 0.667663L12.4674 2.76169C12.7781 2.86734 13.0815 2.99298 13.376 3.13781L15.0139 1.81443C15.1572 1.69908 15.3379 1.64067 15.5216 1.65041C15.7052 1.66014 15.8788 1.73733 16.0091 1.86717L18.1331 3.99105C18.263 4.12126 18.3402 4.29484 18.3499 4.47847C18.3597 4.6621 18.3012 4.84286 18.1859 4.98607L16.8619 6.62438C17.0068 6.91865 17.1326 7.22193 17.2385 7.53234L19.3328 7.75473C19.5159 7.77425 19.6854 7.86081 19.8086 7.99775C19.9317 8.13469 19.9999 8.31234 20 8.49652V11.5005C20.0004 11.6846 19.9326 11.8624 19.8098 11.9996C19.687 12.1368 19.5178 12.2238 19.3348 12.2438L17.2405 12.4662C17.1346 12.7766 17.0087 13.0799 16.8639 13.3741L18.1879 15.0124C18.3032 15.1556 18.3616 15.3364 18.3519 15.52C18.3422 15.7037 18.265 15.8772 18.1351 16.0075L16.011 18.1328C15.8808 18.2627 15.7072 18.3399 15.5236 18.3496C15.3399 18.3593 15.1591 18.3009 15.0159 18.1856L13.3779 16.8622C13.0835 17.007 12.78 17.1327 12.4694 17.2383L12.2475 19.3323C12.228 19.516 12.1412 19.6859 12.0037 19.8092C11.8662 19.9326 11.6878 20.0005 11.5031 20ZM9.16957 18.5075H10.8309L11.0344 16.5891C11.0504 16.4389 11.1115 16.2971 11.2098 16.1824C11.3081 16.0678 11.4388 15.9856 11.5847 15.9468C12.1104 15.8066 12.6151 15.5969 13.0854 15.3234C13.2163 15.2471 13.3674 15.2125 13.5185 15.2241C13.6696 15.2358 13.8135 15.2931 13.9312 15.3886L15.4319 16.601L16.6066 15.4264L15.3921 13.9303C15.2966 13.8127 15.2393 13.6687 15.2276 13.5176C15.216 13.3665 15.2506 13.2155 15.3269 13.0846C15.5999 12.6146 15.8089 12.1104 15.9484 11.5851C15.9872 11.4391 16.0695 11.3083 16.1842 11.21C16.299 11.1118 16.4409 11.0507 16.5912 11.0348L18.5093 10.8308V9.16965L16.5912 8.96567C16.4409 8.9498 16.299 8.8887 16.1842 8.79045C16.0695 8.6922 15.9872 8.56143 15.9484 8.41542C15.809 7.88997 15.6 7.38551 15.3269 6.91542C15.2506 6.7845 15.216 6.63346 15.2276 6.48238C15.2393 6.3313 15.2966 6.18734 15.3921 6.06965L16.6046 4.56915L15.4299 3.39453L13.9292 4.60697C13.8115 4.70241 13.6676 4.75977 13.5165 4.77141C13.3654 4.78305 13.2143 4.74843 13.0834 4.67214C12.6133 4.39934 12.109 4.19037 11.5837 4.05075C11.4378 4.01193 11.3071 3.92975 11.2088 3.81508C11.1106 3.7004 11.0494 3.55862 11.0334 3.40846L10.8319 1.49254H9.16957L8.96607 3.41095C8.95006 3.56117 8.88884 3.703 8.79049 3.81768C8.69214 3.93237 8.5613 4.0145 8.41526 4.05323C7.89038 4.1935 7.38655 4.40314 6.9171 4.67662C6.78617 4.7529 6.63511 4.78753 6.48402 4.77589C6.33292 4.76424 6.18895 4.70689 6.07125 4.61144L4.5721 3.39702L3.39785 4.57164L4.61091 6.07214C4.70628 6.18988 4.76356 6.33386 4.77511 6.48494C4.78666 6.63602 4.75195 6.78704 4.67559 6.91791C4.40298 7.38804 4.19401 7.89228 4.05413 8.41741C4.01531 8.56334 3.93313 8.69407 3.81844 8.79231C3.70375 8.89055 3.56196 8.9517 3.41178 8.96766L1.49318 9.17164V10.8323L3.41178 11.0363C3.56196 11.0523 3.70375 11.1134 3.81844 11.2117C3.93313 11.3099 4.01531 11.4406 4.05413 11.5866C4.19397 12.1112 4.40278 12.6149 4.67509 13.0846C4.75145 13.2154 4.78617 13.3665 4.77461 13.5175C4.76306 13.6686 4.70578 13.8126 4.61041 13.9303L3.39785 15.4284L4.57259 16.603L6.07374 15.3905C6.19144 15.2951 6.33541 15.2377 6.4865 15.2261C6.6376 15.2145 6.78866 15.2491 6.91959 15.3254C7.38945 15.5982 7.89362 15.8072 8.41875 15.9468C8.56479 15.9855 8.69563 16.0676 8.79397 16.1823C8.89232 16.297 8.95355 16.4388 8.96955 16.5891L9.16957 18.5075Z" fill="#654C44"/>
<path d="M10.001 14.5451C9.102 14.545 8.22318 14.2784 7.47571 13.7789C6.72823 13.2794 6.14567 12.5695 5.80169 11.7389C5.45771 10.9084 5.36776 9.99448 5.54322 9.11282C5.71867 8.23116 6.15165 7.42131 6.7874 6.7857C7.42315 6.15008 8.23312 5.71723 9.11489 5.54189C9.99667 5.36655 10.9106 5.45659 11.7412 5.80063C12.5718 6.14466 13.2817 6.72724 13.7812 7.4747C14.2807 8.22215 14.5473 9.10092 14.5473 9.99986C14.5459 11.205 14.0665 12.3604 13.2142 13.2126C12.3619 14.0647 11.2063 14.544 10.001 14.5451ZM10.001 6.94713C9.39723 6.94723 8.807 7.12635 8.305 7.46185C7.80299 7.79735 7.41176 8.27415 7.18075 8.83198C6.94975 9.3898 6.88936 10.0036 7.00722 10.5957C7.12508 11.1879 7.41589 11.7318 7.84289 12.1586C8.26988 12.5855 8.81388 12.8762 9.4061 12.994C9.99832 13.1117 10.6122 13.0512 11.17 12.8202C11.7278 12.5891 12.2046 12.1978 12.5401 11.6958C12.8755 11.1938 13.0546 10.6036 13.0546 9.99986C13.0537 9.19043 12.7316 8.41441 12.1592 7.8421C11.5867 7.26978 10.8106 6.94792 10.001 6.94713Z" fill="#654C44"/>
</svg>
