<svg width="20" height="21" viewBox="0 0 20 21" fill="none" xmlns="http://www.w3.org/2000/svg">
<g clip-path="url(#clip0_113_247)">
<path d="M10.0815 2.59106C10.6177 2.59106 11.4644 4.45373 12.8755 7.30418C13.0731 7.67107 13.0166 7.5864 13.6939 7.69929C16.4597 8.0944 18.6046 8.40484 18.7175 8.91284C18.7457 9.05395 18.661 9.25151 18.4917 9.50551C18.0966 10.07 17.1935 10.9448 16.0928 11.9891C14.597 13.4284 14.7946 12.9204 15.0204 14.2751C15.4719 16.9562 15.7824 18.7342 15.3873 19.0164C15.3308 19.0446 15.2744 19.0728 15.1897 19.0728C14.597 19.0728 13.3271 18.3955 11.4079 17.3795C9.77106 16.5046 10.3637 16.5046 8.75505 17.3795C6.83594 18.3955 5.56595 19.0728 4.97328 19.0728C4.88861 19.0728 4.83217 19.0728 4.77572 19.0164C4.38061 18.7342 4.69105 16.9844 5.14261 14.2751C5.36839 12.9204 5.59417 13.4566 4.07017 11.9891C2.9695 10.9166 2.09461 10.07 1.67128 9.50551C1.50194 9.25151 1.41728 9.05395 1.4455 8.91284C1.55839 8.40484 3.70328 8.0944 6.46906 7.69929C7.25928 7.5864 7.14638 7.55818 7.28749 7.30418C8.6986 4.45373 9.54527 2.59106 10.0815 2.59106Z" fill="#FFD140"/>
<path d="M14.3995 16.4763C8.41636 13.7105 11.6901 13.7388 5.76348 16.4763C6.49726 9.90054 7.54148 13.0896 3.08237 8.26365C9.54525 6.85253 6.75125 9.08209 10.1097 3.1272C13.4399 9.05386 10.6459 6.85253 17.137 8.26365C12.5933 13.1461 13.6657 9.90054 14.3995 16.4763Z" fill="#FFE094"/>
<path d="M18.4917 9.50561C18.153 9.33627 17.645 9.19516 16.9112 9.05405C16.0081 8.88471 14.7946 8.71538 13.2141 8.4896C11.5772 5.15938 10.8435 3.46605 10.1097 3.43783C9.3759 3.40961 8.64214 5.07471 6.94881 8.4896C5.39658 8.71538 4.18303 8.88471 3.27992 9.05405C2.54614 9.19516 2.03814 9.30805 1.67125 9.47738C1.47369 9.19516 1.41725 8.99761 1.44547 8.8565C1.58658 8.40494 3.30814 8.17916 5.67881 7.8405C6.07392 7.78405 6.52547 7.7276 6.97702 7.64294C7.06169 7.64294 7.14635 7.58649 7.2028 7.50183L7.62613 6.62694C8.81146 4.19983 9.60169 2.61938 10.0815 2.61938C10.5612 2.61938 11.295 4.17161 12.3392 6.3165C12.5086 6.68339 12.7061 7.07849 12.9319 7.50183C12.9883 7.58649 13.0448 7.64294 13.1577 7.64294L13.6657 7.72761C16.629 8.15094 18.5764 8.43316 18.6892 8.94116C18.7457 9.05405 18.661 9.25161 18.4917 9.50561Z" fill="#FFF9C0"/>
<path d="M10.0815 2.59106C10.6177 2.59106 11.4644 4.45373 12.8755 7.30418C13.0731 7.67107 13.0166 7.5864 13.6939 7.69929C16.4597 8.0944 18.6046 8.40484 18.7175 8.91284C18.7457 9.05395 18.661 9.25151 18.4917 9.50551C18.0966 10.07 17.1935 10.9448 16.0928 11.9891C14.597 13.4284 14.7946 12.9204 15.0204 14.2751C15.4719 16.9562 15.7824 18.7342 15.3873 19.0164C15.3308 19.0446 15.2744 19.0728 15.1897 19.0728C14.597 19.0728 13.3271 18.3955 11.4079 17.3795C9.77106 16.5046 10.3637 16.5046 8.75505 17.3795C6.83594 18.3955 5.56595 19.0728 4.97328 19.0728C4.88861 19.0728 4.83217 19.0728 4.77572 19.0164C4.38061 18.7342 4.69105 16.9844 5.14261 14.2751C5.36839 12.9204 5.59417 13.4566 4.07017 11.9891C2.9695 10.9166 2.09461 10.07 1.67128 9.50551C1.50194 9.25151 1.41728 9.05395 1.4455 8.91284C1.55839 8.40484 3.70328 8.0944 6.46906 7.69929C7.25928 7.5864 7.14638 7.55818 7.28749 7.30418C8.6986 4.45373 9.54527 2.59106 10.0815 2.59106Z" stroke="#654C44" stroke-width="2.13333" stroke-miterlimit="10" stroke-linecap="round" stroke-linejoin="round"/>
</g>
<defs>
<clipPath id="clip0_113_247">
<rect width="20" height="20" fill="white" transform="translate(0 0.913574)"/>
</clipPath>
</defs>
</svg>
