<svg width="20" height="21" viewBox="0 0 20 21" fill="none" xmlns="http://www.w3.org/2000/svg">
<path d="M10 0.5C6.14585 0.5 3 3.35986 3 6.86364C3 9.05349 4.23116 11.0019 6.09375 12.1477C2.52661 13.5385 0 16.7557 0 20.5H2C2 16.4721 5.56933 13.2273 10 13.2273C14.4307 13.2273 18 16.4721 18 20.5H20C20 16.7557 17.4734 13.5385 13.9062 12.1477C15.7688 11.0019 17 9.05349 17 6.86364C17 3.35986 13.8541 0.5 10 0.5ZM10 2.31818C12.7733 2.31818 15 4.34248 15 6.86364C15 9.38479 12.7733 11.4091 10 11.4091C7.22673 11.4091 5 9.38479 5 6.86364C5 4.34248 7.22673 2.31818 10 2.31818Z" fill="#ECD9C4"/>
</svg>
