<?xml version="1.0" encoding="UTF-8"?>
<svg version="1.1" xmlns="http://www.w3.org/2000/svg" width="512" height="512">
<path d="M0 0 C24.72132316 18.78178448 39.33829928 44.09193938 44.953125 74.43359375 C48.47578522 107.86363919 40.55474139 137.84937867 19.34375 164.140625 C18.42335938 165.31044922 18.42335938 165.31044922 17.484375 166.50390625 C-1.07240041 188.82754846 -29.59795487 201.20570257 -58.01928711 203.8671875 C-87.7166909 205.99217532 -117.21514443 196.89564447 -139.84375 177.44140625 C-163.3150321 156.69765151 -177.39021666 129.45018424 -179.65625 98.140625 C-181.2525846 67.26683446 -171.04967202 37.95970502 -150.34375 14.953125 C-111.0088855 -27.18990141 -46.94018327 -32.85812829 0 0 Z M-126.46875 37.953125 C-139.72277307 53.51748236 -147.58387456 73.43261177 -146.94140625 94.01953125 C-144.79427683 117.52030398 -135.00696773 137.95706742 -117 153.421875 C-99.47309173 166.82480486 -78.37542953 173.14895807 -56.46875 170.453125 C-37.65129925 167.19625852 -22.90252599 159.71952535 -9.65625 146.140625 C-8.91761719 145.41101563 -8.17898438 144.68140625 -7.41796875 143.9296875 C7.96358281 127.86119286 13.06755606 107.31907595 12.6484375 85.6875 C11.91514072 67.93080927 4.33182136 51.17017391 -7.65625 38.140625 C-8.40519531 37.30015625 -9.15414062 36.4596875 -9.92578125 35.59375 C-19.05378172 25.86114853 -30.13970461 19.56414305 -42.65625 15.140625 C-43.50574219 14.8209375 -44.35523438 14.50125 -45.23046875 14.171875 C-74.3687089 4.9837584 -106.11029399 16.47913715 -126.46875 37.953125 Z " fill="#ECD9C4" transform="translate(317.65625,52.859375)"/>
<path d="M0 0 C1.56715508 -0.0098568 1.56715508 -0.0098568 3.16596985 -0.01991272 C6.60535768 -0.03954184 10.04470221 -0.05128087 13.48413086 -0.0612793 C14.66173918 -0.06535482 15.8393475 -0.06943035 17.05264091 -0.07362938 C23.27760515 -0.0944389 29.50254763 -0.10876657 35.72753906 -0.11816406 C42.15585344 -0.12925912 48.58382461 -0.16370953 55.01201725 -0.20333576 C59.95939281 -0.22945525 64.90668562 -0.23785143 69.85412407 -0.24144554 C72.22440362 -0.24631815 74.59467932 -0.25795119 76.96489143 -0.27648354 C80.27765569 -0.30079015 83.58951792 -0.29992588 86.90234375 -0.29296875 C87.87965454 -0.30577881 88.85696533 -0.31858887 89.8638916 -0.33178711 C95.56154846 -0.28816024 98.88389644 0.33595084 103.38647461 4.17700195 C107.01481124 7.99630367 107.69647919 11.05979201 107.88647461 16.17700195 C107.69647919 21.29421189 107.01481124 24.35770023 103.38647461 28.17700195 C96.77714045 33.3800948 90.93577695 33.32531626 82.87719727 33.3347168 C81.92520447 33.33979752 80.97321167 33.34487823 79.99237061 33.35011292 C77.92716003 33.36079987 75.86193799 33.3694266 73.79671097 33.37623215 C70.51564857 33.38806528 67.23471519 33.40753325 63.95370483 33.42935181 C54.62518692 33.49079265 45.2966808 33.54482096 35.96801758 33.57836914 C30.25626947 33.59945926 24.5447549 33.63488219 18.83314133 33.67912674 C16.66851956 33.69318081 14.50385646 33.70198492 12.33919144 33.70518112 C0.31002863 33.72481 -10.92687386 34.14947497 -22.61352539 37.17700195 C-23.3616449 37.36355347 -24.1097644 37.55010498 -24.8805542 37.74230957 C-51.06981194 44.77199063 -74.70011024 63.02126238 -88.61352539 86.17700195 C-99.82696997 106.28478728 -104.24221083 126.30912766 -105.16040039 149.16918945 C-105.20471191 150.23065186 -105.24902344 151.29211426 -105.29467773 152.38574219 C-105.40282582 154.98275762 -105.50906258 157.57983611 -105.61352539 160.17700195 C-104.05251004 160.1714712 -104.05251004 160.1714712 -102.45995903 160.1658287 C-77.14689304 160.07706048 -51.83384722 160.01131319 -26.52065849 159.96975327 C-14.27942246 159.94912139 -2.03828921 159.9209887 10.20288086 159.87524414 C20.87133918 159.83539569 31.53972307 159.80957369 42.20825374 159.80064797 C47.85803685 159.79542989 53.50760702 159.78315223 59.15732193 159.75408173 C64.47440582 159.72694427 69.79118893 159.71855367 75.10833549 159.72457123 C77.06025133 159.72347025 79.01217716 159.71550654 80.96403313 159.70018005 C83.62915268 159.6802783 86.29313664 159.68506337 88.95828247 159.69598389 C89.73066793 159.68433252 90.50305338 159.67268116 91.29884446 159.66067672 C96.48448905 159.71811084 99.38037685 160.92804513 103.38647461 164.17700195 C107.01481124 167.99630367 107.69647919 171.05979201 107.88647461 176.17700195 C107.69647919 181.29421189 107.01481124 184.35770023 103.38647461 188.17700195 C97.01654896 193.19162427 91.55602386 193.32580491 83.68353271 193.31744385 C82.36970403 193.32190053 82.36970403 193.32190053 81.02933335 193.32644725 C78.09465981 193.33511815 75.16002713 193.33664114 72.2253418 193.33813477 C70.1210064 193.34276406 68.01667184 193.34778888 65.91233826 193.35317993 C60.19527054 193.36629486 54.47821456 193.37274709 48.76113415 193.37719059 C45.1885557 193.38012268 41.61598046 193.38422774 38.04340363 193.38869476 C26.86331693 193.40236709 15.68323755 193.41203514 4.50314307 193.41589665 C-8.39841862 193.42037737 -21.29987437 193.4379271 -34.20140386 193.46689725 C-44.17693653 193.4885189 -54.1524394 193.49860119 -64.12799525 193.49993777 C-70.08459087 193.50098542 -76.04108685 193.50688477 -81.99765778 193.52475739 C-87.60206239 193.5412464 -93.20629257 193.54338944 -98.81071281 193.53461838 C-100.86456456 193.53384846 -102.91842573 193.53818468 -104.9722538 193.54807663 C-107.7825921 193.56081551 -110.59231436 193.55490872 -113.40264893 193.54449463 C-114.61304049 193.55657924 -114.61304049 193.55657924 -115.84788442 193.56890798 C-122.19757227 193.51412228 -128.65395231 192.48782804 -133.76977539 188.4934082 C-134.21321289 187.91461914 -134.65665039 187.33583008 -135.11352539 186.73950195 C-135.57758789 186.16329102 -136.04165039 185.58708008 -136.51977539 184.9934082 C-138.42958632 181.82175792 -138.73901732 178.69566017 -138.75878906 175.04541016 C-138.76835884 173.83683098 -138.76835884 173.83683098 -138.77812195 172.60383606 C-138.77923477 171.73723862 -138.7803476 170.87064117 -138.78149414 169.9777832 C-138.78482254 169.06933151 -138.78815094 168.16087982 -138.7915802 167.22489929 C-138.79664342 165.29577133 -138.79898871 163.3666346 -138.79882812 161.4375 C-138.8009839 158.54517201 -138.81905948 155.65324527 -138.83813477 152.76098633 C-138.9674359 110.79340296 -126.74317295 73.9872061 -97.61352539 43.17700195 C-96.91743164 42.42805664 -96.22133789 41.67911133 -95.50415039 40.9074707 C-71.08804007 15.46659662 -35.20851674 0.09707128 0 0 Z " fill="#ECD8C4" transform="translate(164.613525390625,287.822998046875)"/>
<path d="M0 0 C4.1796989 2.8497947 7.11864324 5.98092971 8.75 10.875 C8.953125 12.92578125 8.953125 12.92578125 9 15.1875 C9.02578125 15.92613281 9.0515625 16.66476562 9.078125 17.42578125 C8.24667961 23.63192718 4.31089291 27.7330368 -0.01171875 31.9296875 C-0.56237503 32.47609894 -1.11303131 33.02251038 -1.68037415 33.58547974 C-3.42578276 35.31421202 -5.18136991 37.03216708 -6.9375 38.75 C-8.1289456 39.92638451 -9.31970819 41.1034612 -10.50976562 42.28125 C-13.41533809 45.15389996 -16.33008092 48.01693689 -19.25 50.875 C-18.57947003 50.87738835 -17.90894007 50.87977671 -17.21809101 50.88223743 C-0.90135835 50.94137773 15.41520756 51.01692147 31.73177624 51.11071491 C39.62235872 51.15567736 47.51289603 51.19509095 55.40356445 51.22143555 C62.28120852 51.24441204 69.15870967 51.27780606 76.0362404 51.32370156 C79.67774311 51.34763864 83.31910423 51.36636417 86.96068382 51.37261391 C91.02632188 51.37978663 95.09146722 51.4102171 99.15698242 51.44262695 C100.36395279 51.44119186 101.57092316 51.43975677 102.81446838 51.4382782 C103.92359589 51.45081635 105.03272339 51.46335449 106.17546082 51.47627258 C107.1368909 51.48088155 108.09832098 51.48549051 109.08888531 51.49023914 C115.14123249 52.36532592 118.28322426 56.25263235 121.75 60.875 C123.41619387 65.8735816 123.37822535 70.1887109 121.5625 75.0625 C118.91668433 79.16807604 116.45594492 82.30635169 111.75 83.875 C109.97413288 83.97696647 108.194722 84.0213033 106.41596985 84.03321838 C104.75640259 84.04790161 104.75640259 84.04790161 103.06330872 84.06288147 C101.8491478 84.06863693 100.63498688 84.0743924 99.3840332 84.08032227 C98.10587738 84.09022186 96.82772156 84.10012146 95.51083374 84.11032104 C92.00494487 84.1373642 88.49904255 84.15837694 84.99310708 84.17832303 C81.32954216 84.20018621 77.66601867 84.22757328 74.00248718 84.25437927 C67.06462177 84.30430166 60.12673335 84.34924217 53.18882293 84.39240164 C45.29044826 84.44177789 37.39211518 84.49669458 29.49378073 84.55208123 C13.24589215 84.66589431 -3.00203455 84.77273482 -19.25 84.875 C-18.47285645 85.63643311 -17.69571289 86.39786621 -16.89501953 87.18237305 C-14.00618622 90.0167935 -11.127385 92.8612233 -8.25146484 95.70874023 C-7.006773 96.9383714 -5.75939846 98.16529329 -4.50927734 99.3894043 C-2.7099464 101.1522333 -0.92057648 102.92466948 0.8671875 104.69921875 C1.42558319 105.24213058 1.98397888 105.78504242 2.55929565 106.34440613 C6.83868041 110.6219275 9.02998907 114.23295579 9.0625 120.3125 C8.9249804 125.19040094 7.84704377 128.76076735 4.3203125 132.31640625 C0.4807214 135.66888504 -2.52888498 137.02067637 -7.5625 137.125 C-8.67044922 137.16367187 -8.67044922 137.16367187 -9.80078125 137.203125 C-15.83313724 136.39496248 -19.92177434 132.63863331 -24.04003906 128.45727539 C-24.58390259 127.91706253 -25.12776611 127.37684967 -25.68811035 126.82026672 C-27.47140946 125.04502801 -29.24368491 123.25922737 -31.015625 121.47265625 C-32.25728087 120.23048135 -33.49945614 118.98882545 -34.74212646 117.74766541 C-37.33902419 115.15067816 -39.93069407 112.54861896 -42.51855469 109.94262695 C-45.8344992 106.60396072 -49.16144074 103.27651837 -52.49213028 99.95256901 C-55.05585096 97.39219013 -57.61455722 94.8268485 -60.17168427 92.25988579 C-61.39675412 91.03097 -62.62317142 89.80339591 -63.85095978 88.57719612 C-65.56481042 86.86371656 -67.27201423 85.14388082 -68.97753906 83.42211914 C-69.4845636 82.91757202 -69.99158813 82.4130249 -70.51397705 81.89318848 C-74.98842555 77.35060633 -76.54398614 74.36768904 -76.625 68 C-76.65335937 66.99195313 -76.68171875 65.98390625 -76.7109375 64.9453125 C-75.78032234 58.74646916 -71.12618534 54.45487847 -66.82641602 50.17675781 C-66.29741699 49.64264786 -65.76841797 49.1085379 -65.22338867 48.5582428 C-63.48865994 46.80971282 -61.74670344 45.06861045 -60.00390625 43.328125 C-58.78826849 42.10859662 -57.57285346 40.88884617 -56.35765076 39.66888428 C-53.81661348 37.1204063 -51.27176292 34.57581103 -48.72436523 32.03369141 C-45.46313936 28.7782735 -42.21345248 25.51159959 -38.96673679 22.24171829 C-36.46265 19.72289529 -33.95166588 17.21103793 -31.4386425 14.70113373 C-30.23743485 13.49941334 -29.03858321 12.29533307 -27.84216499 11.0888443 C-26.1695194 9.40384687 -24.4875893 7.72868759 -22.80297852 6.05566406 C-22.31294846 5.55799026 -21.8229184 5.06031647 -21.31803894 4.54756165 C-15.1389233 -1.53811803 -8.12558052 -2.81270095 0 0 Z " fill="#EBD9C4" transform="translate(348.25,316.125)"/>
</svg>
